<svg width="30" height="30" viewBox="0 0 30 30" fill="none" xmlns="http://www.w3.org/2000/svg">
<path d="M5.53287 24.9908L3.42725 1.8374H26.5722L24.4638 24.9871L14.9857 27.5624L5.53287 24.9908Z" fill="#1572B6"/>
<path d="M15 25.5945L22.6594 23.5135L24.4612 3.73096H15V25.5945Z" fill="#33A9DC"/>
<path d="M15 12.1193H18.8344L19.0987 9.21144H15V6.37158H15.0103H22.2656L22.1963 7.13323L21.4847 14.9591H15V12.1193Z" fill="white"/>
<path d="M15.0174 19.4939L15.0043 19.4976L11.7774 18.6431L11.5712 16.3784H10.0027H8.66211L9.06805 20.8371L15.0034 22.4523L15.0174 22.4486V19.4939Z" fill="#EBEBEB"/>
<path d="M18.5876 14.8386L18.2389 18.6413L15.0073 19.4958V22.4505L20.9473 20.8371L20.9914 20.3576L21.4948 14.8386H18.5876Z" fill="white"/>
<path d="M15.01 6.37158V8.13558V9.20409V9.21144H8.02004H8.01066L7.95254 8.57291L7.82035 7.13323L7.75098 6.37158H15.01Z" fill="#EBEBEB"/>
<path d="M15 12.1191V13.8831V14.9516V14.959H11.8228H11.8134L11.7553 14.3205L11.6241 12.8808L11.5547 12.1191H15Z" fill="#EBEBEB"/>
</svg>
