<svg width="30
" height="30
" viewBox="0 0 57 57" fill="none" xmlns="http://www.w3.org/2000/svg">
<rect x="0.5" y="0.5" width="56" height="55.7516" rx="27.8758" fill="url(#paint0_linear_565_2921)"/>
<rect x="0.5" y="0.5" width="56" height="55.7516" rx="27.8758" stroke="black"/>
<g clip-path="url(#clip0_565_2921)">
<path d="M50.0428 40.2145C48.4753 40.6132 47.506 40.2317 46.6363 38.9254C44.6838 36.0001 42.5285 33.2089 40.4488 30.3661C40.1806 29.9982 39.9022 29.6373 39.555 29.1801C37.0938 32.5007 34.636 35.6632 32.3294 38.9529C31.5044 40.1285 30.6381 40.6407 29.0981 40.2248L38.3519 27.8051L29.7375 16.5886C31.2191 16.2998 32.2435 16.4476 33.151 17.7745C35.155 20.7032 37.3653 23.4911 39.5688 26.4404C41.786 23.5014 43.9688 20.7101 46.0313 17.8089C46.8597 16.6332 47.75 16.1864 49.2385 16.6195C48.111 18.1148 47.0075 19.5861 45.8972 21.047C44.3985 23.0167 42.9272 25.0104 41.3735 26.9389C40.82 27.6264 40.9094 28.0732 41.4044 28.7229C44.2781 32.5007 47.1175 36.3164 50.0428 40.2145Z" fill="black"/>
<path d="M6.95721 27.5988C7.20471 26.3579 7.36971 25.0929 7.71346 23.876C9.77596 16.5095 18.2322 13.4466 24.0416 18.0116C27.4447 20.6895 28.2903 24.4638 28.1219 28.7195H8.94065C8.6519 36.3541 14.1485 40.9638 21.1541 38.6126C23.6119 37.7876 25.0591 35.8626 25.7844 33.4563C26.1522 32.2498 26.7607 32.0607 27.895 32.4045C27.3141 35.4157 25.9975 37.932 23.2475 39.5063C19.1225 41.8645 13.2341 41.1013 10.1369 37.8254C8.30815 35.9004 7.53127 33.5045 7.18752 30.916C7.13596 30.5035 7.0294 30.0979 6.9469 29.6888C6.95377 28.9922 6.95721 28.2955 6.95721 27.5988ZM8.97502 27.0866H26.3103C26.1969 21.566 22.7594 17.6438 18.0603 17.6095C12.9041 17.5682 9.19846 21.3976 8.97502 27.0866Z" fill="black"/>
</g>
<defs>
<linearGradient id="paint0_linear_565_2921" x1="28.5" y1="0" x2="28.5" y2="56.7516" gradientUnits="userSpaceOnUse">
<stop stop-color="#FDFDFD"/>
<stop offset="1" stop-color="#F5F4F4"/>
</linearGradient>
<clipPath id="clip0_565_2921">
<rect width="44" height="44" fill="white" transform="translate(6.5 6.37573)"/>
</clipPath>
</defs>
</svg>
