<svg width="30" height="30" viewBox="0 0 51 50" fill="none" xmlns="http://www.w3.org/2000/svg">
<g clip-path="url(#clip0_548_892)">
<path d="M49.8086 38.4531C48.0273 38.9063 46.9258 38.4727 45.9375 36.9883C43.7188 33.6641 41.2695 30.4922 38.9063 27.2617C38.6016 26.8438 38.2852 26.4336 37.8906 25.9141C35.0938 29.6875 32.3008 33.2813 29.6797 37.0195C28.7422 38.3555 27.7578 38.9375 26.0078 38.4648L36.5234 24.3516L26.7344 11.6055C28.418 11.2774 29.582 11.4453 30.6133 12.9531C32.8906 16.2813 35.4023 19.4492 37.9062 22.8008C40.4258 19.4609 42.9062 16.2891 45.25 12.9922C46.1914 11.6563 47.2031 11.1484 48.8945 11.6406C47.6133 13.3399 46.3594 15.0117 45.0977 16.6719C43.3945 18.9102 41.7227 21.1758 39.957 23.3672C39.3281 24.1484 39.4297 24.6563 39.9922 25.3945C43.2578 29.6875 46.4844 34.0234 49.8086 38.4531Z" fill="black"/>
<path d="M0.847656 24.1171C1.12891 22.7069 1.31641 21.2694 1.70703 19.8866C4.05078 11.5155 13.6602 8.03504 20.2617 13.2225C24.1289 16.2655 25.0898 20.5546 24.8984 25.3905H3.10156C2.77344 34.0663 9.01953 39.3046 16.9805 36.6327C19.7734 35.6952 21.418 33.5077 22.2422 30.7733C22.6602 29.4022 23.3516 29.1874 24.6406 29.578C23.9805 32.9999 22.4844 35.8593 19.3594 37.6483C14.6719 40.328 7.98047 39.4608 4.46094 35.7382C2.38281 33.5507 1.5 30.828 1.10938 27.8866C1.05078 27.4179 0.929688 26.9569 0.835938 26.4921C0.84375 25.7004 0.847656 24.9087 0.847656 24.1171ZM3.14062 23.535H22.8398C22.7109 17.2616 18.8047 12.8046 13.4648 12.7655C7.60547 12.7186 3.39453 17.0702 3.14062 23.535Z" fill="black"/>
</g>
<defs>
<clipPath id="clip0_548_892">
<rect width="50" height="50" fill="white" transform="translate(0.328125)"/>
</clipPath>
</defs>
</svg>
