<svg width="30" height="30" viewBox="0 0 30 30" fill="none" xmlns="http://www.w3.org/2000/svg">
<g clip-path="url(#clip0_484_905)">
<path d="M10.375 28.05C11.5353 28.05 12.6481 27.5891 13.4686 26.7686C14.289 25.9481 14.75 24.8354 14.75 23.675V19.3H10.375C9.21467 19.3 8.10187 19.761 7.2814 20.5815C6.46093 21.4019 6 22.5147 6 23.675C6 24.8354 6.46093 25.9481 7.2814 26.7686C8.10187 27.5891 9.21467 28.05 10.375 28.05Z" fill="#0ACF83"/>
<path d="M6 14.925C6 13.7647 6.46093 12.6519 7.2814 11.8315C8.10187 11.011 9.21467 10.55 10.375 10.55H14.75V19.3H10.375C9.21467 19.3 8.10187 18.8391 7.2814 18.0186C6.46093 17.1981 6 16.0854 6 14.925Z" fill="#A259FF"/>
<path d="M6 6.17503C6 5.01531 6.46047 3.90303 7.2802 3.08266C8.09993 2.26229 9.21184 1.80095 10.3716 1.80005L14.7466 1.80005V10.55H10.375C9.21467 10.55 8.10187 10.0891 7.2814 9.26862C6.46093 8.44815 6 7.33535 6 6.17503Z" fill="#F24E1E"/>
<path d="M14.75 1.80005H19.125C20.2853 1.80005 21.3981 2.26098 22.2186 3.08145C23.039 3.90192 23.5 5.01472 23.5 6.17503C23.5 7.33535 23.039 8.44815 22.2186 9.26862C21.3981 10.0891 20.2853 10.55 19.125 10.55H14.75V1.80005Z" fill="#FF7262"/>
<path d="M23.5 14.925C23.5 16.0854 23.039 17.1981 22.2186 18.0186C21.3981 18.8391 20.2853 19.3 19.125 19.3C17.9647 19.3 16.8519 18.8391 16.0314 18.0186C15.2109 17.1981 14.75 16.0854 14.75 14.925C14.75 13.7647 15.2109 12.6519 16.0314 11.8315C16.8519 11.011 17.9647 10.55 19.125 10.55C20.2853 10.55 21.3981 11.011 22.2186 11.8315C23.039 12.6519 23.5 13.7647 23.5 14.925Z" fill="#1ABCFE"/>
</g>
<defs>
<clipPath id="clip0_484_905">
<rect width="30" height="30" fill="white"/>
</clipPath>
</defs>
</svg>
