<svg width="30" height="30" viewBox="0 0 30 30" fill="none" xmlns="http://www.w3.org/2000/svg">
<path d="M27.6303 13.8308L16.1694 2.36987C16.0126 2.21255 15.8263 2.08772 15.6212 2.00255C15.4161 1.91738 15.1962 1.87354 14.9741 1.87354C14.752 1.87354 14.5321 1.91738 14.327 2.00255C14.1218 2.08772 13.9355 2.21255 13.7788 2.36987L11.3985 4.75018L14.4172 7.76893C14.7732 7.64779 15.156 7.62907 15.5221 7.71493C15.8882 7.80078 16.2228 7.98774 16.4878 8.2545C16.7529 8.52127 16.9376 8.85712 17.021 9.22377C17.1045 9.59042 17.0832 9.97314 16.9597 10.3283L19.866 13.2346C20.3004 13.0853 20.7728 13.0894 21.2046 13.2462C21.6363 13.4031 22.0013 13.7031 22.2387 14.0963C22.476 14.4895 22.5715 14.9523 22.5092 15.4073C22.4468 15.8624 22.2304 16.2824 21.896 16.5973C21.5616 16.9122 21.1294 17.103 20.6714 17.1379C20.2134 17.1728 19.7572 17.0497 19.379 16.7891C19.0007 16.5285 18.7231 16.1462 18.5925 15.7058C18.462 15.2654 18.4862 14.7936 18.6613 14.3689L15.9472 11.6549V18.7958C16.3583 18.9995 16.6873 19.3379 16.8792 19.7547C17.0712 20.1714 17.1145 20.6414 17.0021 21.0862C16.8897 21.531 16.6282 21.9239 16.2613 22.1994C15.8944 22.4749 15.4441 22.6164 14.9856 22.6003C14.5271 22.5842 14.0879 22.4114 13.7412 22.1109C13.3945 21.8103 13.1613 21.4 13.0804 20.9484C12.9995 20.4967 13.0757 20.031 13.2964 19.6287C13.5172 19.2265 13.869 18.912 14.2935 18.7377V11.5311C14.0479 11.4304 13.8247 11.282 13.6368 11.0947C13.4488 10.9073 13.2998 10.6846 13.1983 10.4394C13.0967 10.1942 13.0447 9.93129 13.0453 9.66589C13.0458 9.40049 13.0988 9.13781 13.2013 8.89299L10.2294 5.91924L2.37034 13.7811C2.21288 13.9379 2.08793 14.1243 2.00268 14.3295C1.91742 14.5347 1.87354 14.7547 1.87354 14.9769C1.87354 15.1991 1.91742 15.4191 2.00268 15.6243C2.08793 15.8295 2.21288 16.0159 2.37034 16.1727L13.8313 27.6299C13.988 27.7872 14.1743 27.912 14.3795 27.9972C14.5846 28.0824 14.8045 28.1262 15.0266 28.1262C15.2487 28.1262 15.4686 28.0824 15.6737 27.9972C15.8788 27.912 16.0651 27.7872 16.2219 27.6299L27.6303 16.2186C27.7878 16.0618 27.9127 15.8755 27.998 15.6703C28.0833 15.4651 28.1271 15.245 28.1271 15.0228C28.1271 14.8006 28.0833 14.5806 27.998 14.3754C27.9127 14.1702 27.7878 13.9838 27.6303 13.8271" fill="#DD4C35"/>
<path d="M11.3981 4.75024L14.4168 7.76899C14.7728 7.64785 15.1556 7.62914 15.5217 7.71499C15.8878 7.80084 16.2224 7.9878 16.4874 8.25457C16.7525 8.52134 16.9372 8.85718 17.0206 9.22383C17.1041 9.59049 17.0828 9.9732 16.9593 10.3284L19.8656 13.2346C20.3 13.0854 20.7724 13.0895 21.2042 13.2463C21.6359 13.4031 22.0009 13.7031 22.2383 14.0964C22.4757 14.4896 22.5711 14.9523 22.5088 15.4074C22.4464 15.8625 22.23 16.2825 21.8956 16.5974C21.5612 16.9122 21.129 17.103 20.671 17.1379C20.213 17.1728 19.7568 17.0497 19.3786 16.7892C19.0003 16.5286 18.7227 16.1463 18.5922 15.7059C18.4616 15.2655 18.4858 14.7937 18.6609 14.369L15.9468 11.6549V18.7959C16.3579 18.9996 16.6869 19.338 16.8788 19.7547C17.0708 20.1715 17.1141 20.6414 17.0017 21.0863C16.8893 21.5311 16.6278 21.924 16.2609 22.1995C15.894 22.475 15.4437 22.6165 14.9852 22.6004C14.5267 22.5842 14.0875 22.4115 13.7408 22.1109C13.3941 21.8103 13.1609 21.4001 13.08 20.9484C12.9991 20.4968 13.0753 20.0311 13.296 19.6288C13.5168 19.2266 13.8686 18.9121 14.2931 18.7377V11.5312C14.0475 11.4304 13.8243 11.2821 13.6364 11.0947C13.4484 10.9074 13.2994 10.6847 13.1979 10.4395C13.0963 10.1942 13.0443 9.93135 13.0449 9.66595C13.0454 9.40055 13.0984 9.13788 13.2009 8.89306L10.229 5.91931" fill="white"/>
</svg>
