<svg width="82" height="15" viewBox="0 0 82 15" fill="none" xmlns="http://www.w3.org/2000/svg">
<circle cx="7.5" cy="7.5" r="7.5" fill="black"/>
<path fill-rule="evenodd" clip-rule="evenodd" d="M7.49922 0C3.35778 0 0 3.35091 0 7.48513C0 10.7918 2.14874 13.5971 5.12921 14.5872C5.50434 14.6557 5.64103 14.4246 5.64103 14.2259C5.64103 14.0487 5.63479 13.5778 5.63105 12.9533C3.54472 13.4055 3.10468 11.9498 3.10468 11.9498C2.76356 11.0855 2.27171 10.8553 2.27171 10.8553C1.59072 10.3907 2.3232 10.4 2.3232 10.4C3.07596 10.4533 3.47201 11.1715 3.47201 11.1715C4.14113 12.3151 5.22751 11.9847 5.65477 11.7934C5.72311 11.3098 5.9163 10.9799 6.13102 10.7927C4.4657 10.604 2.71456 9.96148 2.71456 7.09363C2.71456 6.27669 3.00699 5.60832 3.48667 5.08508C3.40959 4.89571 3.15211 4.13484 3.56002 3.10424C3.56002 3.10424 4.18981 2.90304 5.62262 3.87166C6.2209 3.70566 6.86256 3.6225 7.50016 3.6197C8.13713 3.6225 8.77879 3.70566 9.378 3.87166C10.8099 2.90304 11.4384 3.10424 11.4384 3.10424C11.8476 4.13484 11.5901 4.89571 11.513 5.08508C11.9936 5.60832 12.2842 6.27669 12.2842 7.09363C12.2842 9.96896 10.5302 10.6015 8.85931 10.7868C9.12896 11.0179 9.36864 11.4745 9.36864 12.1731C9.36864 13.1735 9.35959 13.9808 9.35959 14.2259C9.35959 14.4265 9.49441 14.6594 9.87516 14.5862C12.8531 13.5943 15 10.7909 15 7.48513C15 3.35091 11.6419 0 7.49922 0Z" fill="#F8F9FC"/>
<path d="M20 0H75C78.866 0 82 3.13401 82 7V8C82 11.866 78.866 15 75 15H20V0Z" fill="#F8F9FC"/>
<path d="M26.3773 12V6.72248H25.3146V5.54706H26.3773V4.86436C26.3773 4.21531 26.5474 3.73049 26.8878 3.40993C27.2321 3.08936 27.7624 2.92907 28.4788 2.92907C28.7756 2.92907 29.0487 2.95084 29.298 2.99437V4.07481C29.1674 4.05502 28.9992 4.04513 28.7934 4.04513C28.453 4.04513 28.2057 4.12032 28.0513 4.27071C27.901 4.41715 27.8258 4.64669 27.8258 4.95934V5.54706H29.2386V6.72248H27.8436V12H26.3773ZM32.786 6.54438C32.3467 6.54438 31.9846 6.68884 31.6997 6.97774C31.4147 7.26665 31.2564 7.64857 31.2247 8.12348H34.282C34.2662 7.64065 34.1237 7.25676 33.8546 6.97181C33.5855 6.68686 33.2293 6.54438 32.786 6.54438ZM34.2939 10.2131H35.689C35.5505 10.8068 35.2239 11.2758 34.7095 11.6201C34.1989 11.9604 33.5637 12.1306 32.8038 12.1306C31.8501 12.1306 31.1001 11.8338 30.5539 11.2401C30.0117 10.6425 29.7406 9.82131 29.7406 8.7765C29.7406 7.73168 30.0137 6.90453 30.5599 6.29505C31.106 5.68162 31.8501 5.3749 32.792 5.3749C33.7181 5.3749 34.4423 5.66578 34.9647 6.24756C35.4911 6.82538 35.7543 7.6268 35.7543 8.65183V9.12675H31.2188V9.20392C31.2386 9.74612 31.3929 10.1755 31.6819 10.4921C31.9747 10.8048 32.3626 10.9611 32.8454 10.9611C33.5894 10.9611 34.0723 10.7118 34.2939 10.2131ZM36.8677 12V5.5055H38.2865V6.5147H38.3875C38.4785 6.19017 38.6823 5.92303 38.9989 5.71328C39.3195 5.50352 39.6875 5.39864 40.1031 5.39864C40.3683 5.39864 40.5721 5.42041 40.7146 5.46394V6.82933C40.5642 6.77393 40.3129 6.74622 39.9606 6.74622C39.4817 6.74622 39.0919 6.88474 38.7911 7.16178C38.4904 7.43485 38.34 7.79698 38.34 8.24815V12H36.8677ZM42.9975 10.1656C43.2785 10.5258 43.6742 10.7058 44.1848 10.7058C44.6953 10.7058 45.097 10.5238 45.3899 10.1597C45.6827 9.79559 45.8292 9.30286 45.8292 8.68151C45.8292 8.06016 45.6827 7.56743 45.3899 7.20333C45.097 6.83527 44.6953 6.65124 44.1848 6.65124C43.6782 6.65124 43.2824 6.83329 42.9975 7.19739C42.7165 7.5615 42.576 8.0562 42.576 8.68151C42.576 9.30682 42.7165 9.80153 42.9975 10.1656ZM44.1848 14.4696C43.3576 14.4696 42.6848 14.3014 42.1664 13.965C41.6519 13.6286 41.365 13.1794 41.3056 12.6174H42.7838C42.8313 12.843 42.9797 13.0211 43.229 13.1517C43.4823 13.2823 43.8088 13.3476 44.2085 13.3476C44.7111 13.3476 45.103 13.2348 45.3839 13.0092C45.6649 12.7836 45.8054 12.467 45.8054 12.0594V10.8305H45.7045C45.5185 11.1788 45.2533 11.4459 44.909 11.6319C44.5687 11.814 44.1729 11.905 43.7217 11.905C42.9065 11.905 42.2594 11.6141 41.7805 11.0324C41.3016 10.4466 41.0622 9.66301 41.0622 8.68151C41.0622 7.68419 41.3036 6.8887 41.7864 6.29505C42.2693 5.69745 42.9223 5.39864 43.7455 5.39864C44.1887 5.39864 44.5904 5.50154 44.9506 5.70734C45.3107 5.91314 45.5798 6.19215 45.7579 6.54438H45.8589V5.5055H47.2777V12.0237C47.2777 12.7757 46.9987 13.3713 46.4406 13.8106C45.8826 14.2499 45.1307 14.4696 44.1848 14.4696ZM48.5752 7.36362C48.5752 6.77788 48.8166 6.30099 49.2994 5.93293C49.7822 5.56091 50.4075 5.3749 51.1753 5.3749C51.9471 5.3749 52.5625 5.53914 53.0216 5.86762C53.4846 6.19215 53.7419 6.64926 53.7933 7.23895H52.4101C52.3547 7.00545 52.2201 6.8234 52.0064 6.69279C51.7967 6.55823 51.5216 6.49095 51.1813 6.49095C50.8409 6.49095 50.5599 6.56417 50.3383 6.7106C50.1167 6.85704 50.0058 7.047 50.0058 7.2805C50.0058 7.46256 50.083 7.61295 50.2374 7.73168C50.3957 7.85041 50.6391 7.94737 50.9676 8.02256L52.1133 8.28377C52.7386 8.42624 53.1977 8.63798 53.4906 8.91897C53.7834 9.19996 53.9299 9.57792 53.9299 10.0528C53.9299 10.6742 53.6726 11.1768 53.1581 11.5607C52.6436 11.9406 51.9787 12.1306 51.1635 12.1306C50.3521 12.1306 49.7031 11.9644 49.2163 11.6319C48.7335 11.2995 48.4643 10.8384 48.4089 10.2487H49.8634C49.9346 10.4941 50.083 10.6841 50.3086 10.8186C50.5381 10.9492 50.835 11.0145 51.1991 11.0145C51.5711 11.0145 51.8739 10.9413 52.1074 10.7949C52.3409 10.6445 52.4576 10.4486 52.4576 10.2072C52.4576 9.84704 52.1588 9.60167 51.5612 9.47106L50.4095 9.20392C49.7842 9.06145 49.3212 8.8418 49.0204 8.54497C48.7236 8.24419 48.5752 7.85041 48.5752 7.36362ZM57.8572 12.1306C56.8836 12.1306 56.1198 11.8318 55.5657 11.2342C55.0116 10.6326 54.7346 9.80548 54.7346 8.75275C54.7346 7.70793 55.0136 6.88474 55.5716 6.28318C56.1297 5.67766 56.8915 5.3749 57.8572 5.3749C58.8268 5.3749 59.5887 5.67568 60.1427 6.27724C60.7008 6.8788 60.9798 7.70397 60.9798 8.75275C60.9798 9.80548 60.7008 10.6326 60.1427 11.2342C59.5887 11.8318 58.8268 12.1306 57.8572 12.1306ZM56.664 10.3378C56.9449 10.7098 57.3427 10.8958 57.8572 10.8958C58.3717 10.8958 58.7674 10.7098 59.0445 10.3378C59.3255 9.96181 59.466 9.43347 59.466 8.75275C59.466 8.07599 59.3255 7.54963 59.0445 7.17365C58.7635 6.79767 58.3677 6.60968 57.8572 6.60968C57.3427 6.60968 56.9449 6.79767 56.664 7.17365C56.383 7.54963 56.2425 8.07599 56.2425 8.75275C56.2425 9.43347 56.383 9.96181 56.664 10.3378ZM61.9507 7.36362C61.9507 6.77788 62.1922 6.30099 62.675 5.93293C63.1578 5.56091 63.7831 5.3749 64.5509 5.3749C65.3227 5.3749 65.9381 5.53914 66.3972 5.86762C66.8602 6.19215 67.1174 6.64926 67.1689 7.23895H65.7857C65.7303 7.00545 65.5957 6.8234 65.382 6.69279C65.1723 6.55823 64.8972 6.49095 64.5568 6.49095C64.2165 6.49095 63.9355 6.56417 63.7139 6.7106C63.4922 6.85704 63.3814 7.047 63.3814 7.2805C63.3814 7.46256 63.4586 7.61295 63.6129 7.73168C63.7713 7.85041 64.0146 7.94737 64.3431 8.02256L65.4889 8.28377C66.1142 8.42624 66.5733 8.63798 66.8661 8.91897C67.159 9.19996 67.3054 9.57792 67.3054 10.0528C67.3054 10.6742 67.0482 11.1768 66.5337 11.5607C66.0192 11.9406 65.3543 12.1306 64.539 12.1306C63.7277 12.1306 63.0787 11.9644 62.5919 11.6319C62.109 11.2995 61.8399 10.8384 61.7845 10.2487H63.239C63.3102 10.4941 63.4586 10.6841 63.6842 10.8186C63.9137 10.9492 64.2106 11.0145 64.5747 11.0145C64.9467 11.0145 65.2494 10.9413 65.4829 10.7949C65.7164 10.6445 65.8332 10.4486 65.8332 10.2072C65.8332 9.84704 65.5344 9.60167 64.9368 9.47106L63.7851 9.20392C63.1598 9.06145 62.6968 8.8418 62.396 8.54497C62.0991 8.24419 61.9507 7.85041 61.9507 7.36362ZM70.651 10.9492C71.0942 10.9492 71.4643 10.8226 71.7611 10.5693C72.0579 10.3121 72.2063 9.99545 72.2063 9.61947V9.103L70.74 9.19799C69.9327 9.24943 69.529 9.5423 69.529 10.0766C69.529 10.3457 69.6319 10.5594 69.8377 10.7177C70.0475 10.8721 70.3185 10.9492 70.651 10.9492ZM70.2176 12.1069C69.5844 12.1069 69.0679 11.9288 68.6682 11.5726C68.2685 11.2164 68.0686 10.7454 68.0686 10.1597C68.0686 9.57396 68.2804 9.11487 68.7038 8.78243C69.1313 8.44999 69.7407 8.26002 70.5323 8.21253L72.2063 8.11161V7.56546C72.2063 7.24489 72.1015 6.99951 71.8917 6.82933C71.682 6.65915 71.3792 6.57406 70.9834 6.57406C70.6431 6.57406 70.3621 6.63343 70.1405 6.75216C69.9188 6.86693 69.7744 7.03315 69.7071 7.25082H68.318C68.3773 6.67696 68.6544 6.22183 69.1491 5.88543C69.6477 5.54508 70.2829 5.3749 71.0547 5.3749C71.8858 5.3749 72.5269 5.56684 72.9781 5.95074C73.4332 6.33463 73.6608 6.87287 73.6608 7.56546V12H72.242V11.1095H72.141C71.959 11.4222 71.6978 11.6676 71.3574 11.8457C71.021 12.0198 70.6411 12.1069 70.2176 12.1069Z" fill="#1D1D1F"/>
</svg>
