<svg width="102" height="15" viewBox="0 0 102 15" fill="none" xmlns="http://www.w3.org/2000/svg">
<path d="M7.82395 9.22521L0.775038 4.7394C0.410621 4.4984 0.155424 4.12393 0.0644031 3.69661C-0.0266182 3.2693 0.0538168 2.82334 0.288387 2.45475C0.522957 2.08616 0.892899 1.82444 1.31855 1.72594C1.7442 1.62744 2.19151 1.70004 2.56415 1.92811L7.73558 5.21888L12.3788 1.96855C12.7411 1.72306 13.1854 1.62993 13.6157 1.70926C14.0461 1.78859 14.4279 2.03402 14.6789 2.39254C14.9298 2.75106 15.0296 3.19389 14.9568 3.6254C14.884 4.0569 14.6443 4.44244 14.2896 4.69874L7.82395 9.22521Z" fill="#EA4435"/>
<path d="M13.8891 13.332H11.6672L11.6672 3.33357C11.6672 2.89162 11.8427 2.46776 12.1553 2.15525C12.4678 1.84273 12.8916 1.66717 13.3336 1.66717C13.7755 1.66717 14.1994 1.84273 14.5119 2.15525C14.8244 2.46776 15 2.89162 15 3.33357L15 12.2211C15 12.5157 14.883 12.7983 14.6746 13.0066C14.4663 13.215 14.1837 13.332 13.8891 13.332Z" fill="#00AC47"/>
<path d="M14.9738 3.09332C14.9689 3.06 14.9693 3.02595 14.9623 2.99267C14.9516 2.94168 14.9318 2.89458 14.9166 2.84536C14.9018 2.78903 14.8841 2.73354 14.8634 2.67911C14.8523 2.65273 14.8352 2.62956 14.8226 2.6039C14.788 2.52986 14.748 2.45847 14.7029 2.39032C14.6807 2.35805 14.6529 2.33055 14.6284 2.3C14.5862 2.24448 14.5407 2.19162 14.492 2.14175C14.4551 2.10581 14.413 2.07576 14.3728 2.04338C14.3301 2.00678 14.2856 1.97235 14.2395 1.94022C14.1954 1.91145 14.1472 1.88929 14.1006 1.86474C14.0515 1.83913 14.0034 1.81124 13.9523 1.7908C13.9029 1.77092 13.8503 1.75825 13.7987 1.74309C13.7471 1.72792 13.6957 1.70976 13.6427 1.69993C13.5771 1.68938 13.5109 1.68271 13.4444 1.67993C13.4023 1.67699 13.3605 1.6696 13.3182 1.66993C13.2396 1.67222 13.1613 1.68011 13.0838 1.69354C13.0526 1.69821 13.0211 1.69782 12.99 1.70426C12.8852 1.73629 12.7807 1.76925 12.6764 1.80313C12.6478 1.81535 12.6228 1.83352 12.5951 1.84729C12.313 1.97892 12.0751 2.18942 11.9101 2.45336C11.7451 2.71731 11.66 3.02339 11.6653 3.33462V6.53524L14.2871 4.6998C14.5445 4.52701 14.7464 4.2833 14.8683 3.99817C14.9901 3.71304 15.0268 3.39882 14.9738 3.09332Z" fill="#FFBA00"/>
<path d="M1.66641 1.66772C2.10837 1.66772 2.53223 1.84329 2.84474 2.1558C3.15725 2.46832 3.33282 2.89217 3.33282 3.33413V13.3326H1.11094C0.8163 13.3326 0.533728 13.2155 0.325387 13.0072C0.117045 12.7989 0 12.5163 0 12.2217V3.33413C0 2.89217 0.175568 2.46832 0.48808 2.1558C0.800592 1.84329 1.22445 1.66772 1.66641 1.66772Z" fill="#4285F4"/>
<path d="M0.0236076 3.09371C0.0284957 3.06039 0.0281069 3.02633 0.0350503 2.99306C0.0457153 2.94207 0.0655455 2.89497 0.0807654 2.84575C0.0955197 2.78944 0.113283 2.73396 0.133979 2.67955C0.145089 2.65317 0.162197 2.63001 0.174862 2.60434C0.209401 2.53027 0.249394 2.45886 0.29451 2.39071C0.316729 2.35844 0.344503 2.33094 0.369054 2.30039C0.411168 2.24487 0.456694 2.19201 0.505367 2.14214C0.542305 2.1062 0.58441 2.07615 0.624626 2.04376C0.667295 2.00715 0.71179 1.97273 0.757939 1.94061C0.801987 1.91184 0.850202 1.88968 0.896806 1.86512C0.944967 1.83788 0.994467 1.81308 1.04512 1.7908C1.09455 1.77092 1.14721 1.75825 1.19876 1.74309C1.25031 1.72792 1.30169 1.70976 1.35468 1.69993C1.42033 1.68938 1.48655 1.68271 1.55298 1.67993C1.5952 1.67699 1.63691 1.6696 1.67924 1.66993C1.75782 1.67222 1.83614 1.68011 1.91359 1.69354C1.94487 1.69821 1.97636 1.69782 2.00747 1.70426C2.06124 1.71796 2.11426 1.73442 2.16633 1.75359C2.21869 1.7675 2.27033 1.78404 2.32103 1.80313C2.34958 1.81535 2.37463 1.83352 2.40241 1.84729C2.47441 1.88112 2.54388 1.92011 2.61026 1.96394C2.8328 2.11675 3.01481 2.32142 3.14056 2.56029C3.26631 2.79917 3.33203 3.06506 3.33204 3.33501V6.53563L0.710224 4.7003C0.452806 4.52746 0.25097 4.28375 0.12912 3.99863C0.00726875 3.71352 -0.0293789 3.39921 0.0236076 3.09371Z" fill="#C52528"/>
<path d="M20 0H95C98.866 0 102 3.13401 102 7V8C102 11.866 98.866 15 95 15H20V0Z" fill="#FC3D39"/>
<path d="M26.3773 12V6.72248H25.3146V5.54706H26.3773V4.86436C26.3773 4.21531 26.5474 3.73049 26.8878 3.40993C27.2321 3.08936 27.7624 2.92907 28.4788 2.92907C28.7756 2.92907 29.0487 2.95084 29.298 2.99437V4.07481C29.1674 4.05502 28.9992 4.04513 28.7934 4.04513C28.453 4.04513 28.2057 4.12032 28.0513 4.27071C27.901 4.41715 27.8258 4.64669 27.8258 4.95934V5.54706H29.2386V6.72248H27.8436V12H26.3773ZM32.786 6.54438C32.3467 6.54438 31.9846 6.68884 31.6997 6.97774C31.4147 7.26665 31.2564 7.64857 31.2247 8.12348H34.282C34.2662 7.64065 34.1237 7.25676 33.8546 6.97181C33.5855 6.68686 33.2293 6.54438 32.786 6.54438ZM34.2939 10.2131H35.689C35.5505 10.8068 35.2239 11.2758 34.7095 11.6201C34.1989 11.9604 33.5637 12.1306 32.8038 12.1306C31.8501 12.1306 31.1001 11.8338 30.5539 11.2401C30.0117 10.6425 29.7406 9.82131 29.7406 8.7765C29.7406 7.73168 30.0137 6.90453 30.5599 6.29505C31.106 5.68162 31.8501 5.3749 32.792 5.3749C33.7181 5.3749 34.4423 5.66578 34.9647 6.24756C35.4911 6.82538 35.7543 7.6268 35.7543 8.65183V9.12675H31.2188V9.20392C31.2386 9.74612 31.3929 10.1755 31.6819 10.4921C31.9747 10.8048 32.3626 10.9611 32.8454 10.9611C33.5894 10.9611 34.0723 10.7118 34.2939 10.2131ZM36.8677 12V5.5055H38.2865V6.5147H38.3875C38.4785 6.19017 38.6823 5.92303 38.9989 5.71328C39.3195 5.50352 39.6875 5.39864 40.1031 5.39864C40.3683 5.39864 40.5721 5.42041 40.7146 5.46394V6.82933C40.5642 6.77393 40.3129 6.74622 39.9606 6.74622C39.4817 6.74622 39.0919 6.88474 38.7911 7.16178C38.4904 7.43485 38.34 7.79698 38.34 8.24815V12H36.8677ZM41.7093 12.1247C41.4322 12.1247 41.2047 12.0356 41.0266 11.8575C40.8485 11.6794 40.7594 11.4558 40.7594 11.1867C40.7594 10.9136 40.8485 10.69 41.0266 10.5159C41.2047 10.3378 41.4322 10.2487 41.7093 10.2487C41.9903 10.2487 42.2178 10.3378 42.392 10.5159C42.5701 10.69 42.6591 10.9136 42.6591 11.1867C42.6591 11.4558 42.5701 11.6794 42.392 11.8575C42.2178 12.0356 41.9903 12.1247 41.7093 12.1247ZM44.0991 7.36362C44.0991 6.77788 44.3405 6.30099 44.8233 5.93293C45.3061 5.56091 45.9314 5.3749 46.6992 5.3749C47.471 5.3749 48.0864 5.53914 48.5455 5.86762C49.0085 6.19215 49.2658 6.64926 49.3172 7.23895H47.934C47.8786 7.00545 47.744 6.8234 47.5303 6.69279C47.3206 6.55823 47.0455 6.49095 46.7052 6.49095C46.3648 6.49095 46.0838 6.56417 45.8622 6.7106C45.6406 6.85704 45.5297 7.047 45.5297 7.2805C45.5297 7.46256 45.6069 7.61295 45.7613 7.73168C45.9196 7.85041 46.163 7.94737 46.4915 8.02256L47.6372 8.28377C48.2625 8.42624 48.7216 8.63798 49.0145 8.91897C49.3073 9.19996 49.4538 9.57792 49.4538 10.0528C49.4538 10.6742 49.1965 11.1768 48.682 11.5607C48.1675 11.9406 47.5026 12.1306 46.6874 12.1306C45.876 12.1306 45.227 11.9644 44.7402 11.6319C44.2574 11.2995 43.9882 10.8384 43.9328 10.2487H45.3873C45.4585 10.4941 45.6069 10.6841 45.8325 10.8186C46.062 10.9492 46.3589 11.0145 46.723 11.0145C47.095 11.0145 47.3978 10.9413 47.6313 10.7949C47.8648 10.6445 47.9815 10.4486 47.9815 10.2072C47.9815 9.84704 47.6827 9.60167 47.0851 9.47106L45.9334 9.20392C45.3081 9.06145 44.8451 8.8418 44.5443 8.54497C44.2475 8.24419 44.0991 7.85041 44.0991 7.36362ZM53.3811 12.1306C52.4075 12.1306 51.6437 11.8318 51.0896 11.2342C50.5355 10.6326 50.2585 9.80548 50.2585 8.75275C50.2585 7.70793 50.5375 6.88474 51.0955 6.28318C51.6536 5.67766 52.4154 5.3749 53.3811 5.3749C54.3507 5.3749 55.1126 5.67568 55.6666 6.27724C56.2247 6.8788 56.5037 7.70397 56.5037 8.75275C56.5037 9.80548 56.2247 10.6326 55.6666 11.2342C55.1126 11.8318 54.3507 12.1306 53.3811 12.1306ZM52.1879 10.3378C52.4688 10.7098 52.8666 10.8958 53.3811 10.8958C53.8956 10.8958 54.2913 10.7098 54.5684 10.3378C54.8494 9.96181 54.9899 9.43347 54.9899 8.75275C54.9899 8.07599 54.8494 7.54963 54.5684 7.17365C54.2874 6.79767 53.8916 6.60968 53.3811 6.60968C52.8666 6.60968 52.4688 6.79767 52.1879 7.17365C51.9069 7.54963 51.7664 8.07599 51.7664 8.75275C51.7664 9.43347 51.9069 9.96181 52.1879 10.3378ZM57.4746 7.36362C57.4746 6.77788 57.7161 6.30099 58.1989 5.93293C58.6817 5.56091 59.307 5.3749 60.0748 5.3749C60.8466 5.3749 61.462 5.53914 61.9211 5.86762C62.3841 6.19215 62.6413 6.64926 62.6928 7.23895H61.3096C61.2542 7.00545 61.1196 6.8234 60.9059 6.69279C60.6962 6.55823 60.4211 6.49095 60.0807 6.49095C59.7404 6.49095 59.4594 6.56417 59.2378 6.7106C59.0161 6.85704 58.9053 7.047 58.9053 7.2805C58.9053 7.46256 58.9825 7.61295 59.1368 7.73168C59.2952 7.85041 59.5386 7.94737 59.867 8.02256L61.0128 8.28377C61.6381 8.42624 62.0972 8.63798 62.39 8.91897C62.6829 9.19996 62.8293 9.57792 62.8293 10.0528C62.8293 10.6742 62.5721 11.1768 62.0576 11.5607C61.5431 11.9406 60.8782 12.1306 60.0629 12.1306C59.2516 12.1306 58.6026 11.9644 58.1158 11.6319C57.6329 11.2995 57.3638 10.8384 57.3084 10.2487H58.7629C58.8341 10.4941 58.9825 10.6841 59.2081 10.8186C59.4376 10.9492 59.7345 11.0145 60.0986 11.0145C60.4706 11.0145 60.7733 10.9413 61.0068 10.7949C61.2403 10.6445 61.3571 10.4486 61.3571 10.2072C61.3571 9.84704 61.0583 9.60167 60.4607 9.47106L59.309 9.20392C58.6837 9.06145 58.2207 8.8418 57.9199 8.54497C57.623 8.24419 57.4746 7.85041 57.4746 7.36362ZM66.1749 10.9492C66.6182 10.9492 66.9882 10.8226 67.285 10.5693C67.5818 10.3121 67.7303 9.99545 67.7303 9.61947V9.103L66.2639 9.19799C65.4566 9.24943 65.0529 9.5423 65.0529 10.0766C65.0529 10.3457 65.1558 10.5594 65.3616 10.7177C65.5714 10.8721 65.8425 10.9492 66.1749 10.9492ZM65.7415 12.1069C65.1083 12.1069 64.5918 11.9288 64.1921 11.5726C63.7924 11.2164 63.5925 10.7454 63.5925 10.1597C63.5925 9.57396 63.8043 9.11487 64.2277 8.78243C64.6552 8.44999 65.2646 8.26002 66.0562 8.21253L67.7303 8.11161V7.56546C67.7303 7.24489 67.6254 6.99951 67.4156 6.82933C67.2059 6.65915 66.9031 6.57406 66.5073 6.57406C66.167 6.57406 65.886 6.63343 65.6644 6.75216C65.4427 6.86693 65.2983 7.03315 65.231 7.25082H63.8419C63.9012 6.67696 64.1783 6.22183 64.673 5.88543C65.1716 5.54508 65.8068 5.3749 66.5786 5.3749C67.4097 5.3749 68.0508 5.56684 68.502 5.95074C68.9571 6.33463 69.1847 6.87287 69.1847 7.56546V12H67.7659V11.1095H67.6649C67.4829 11.4222 67.2217 11.6676 66.8813 11.8457C66.5449 12.0198 66.165 12.1069 65.7415 12.1069ZM71.6932 12.1247C71.4162 12.1247 71.1886 12.0356 71.0105 11.8575C70.8324 11.6794 70.7434 11.4558 70.7434 11.1867C70.7434 10.9136 70.8324 10.69 71.0105 10.5159C71.1886 10.3378 71.4162 10.2487 71.6932 10.2487C71.9742 10.2487 72.2018 10.3378 72.3759 10.5159C72.554 10.69 72.643 10.9136 72.643 11.1867C72.643 11.4558 72.554 11.6794 72.3759 11.8575C72.2018 12.0356 71.9742 12.1247 71.6932 12.1247ZM74.2492 12V5.5055H75.7155V12H74.2492ZM74.9794 4.44881C74.7142 4.44881 74.4966 4.37361 74.3264 4.22322C74.1562 4.06887 74.0711 3.87297 74.0711 3.63551C74.0711 3.39805 74.1562 3.20413 74.3264 3.05374C74.4966 2.89939 74.7142 2.82221 74.9794 2.82221C75.2485 2.82221 75.4662 2.89939 75.6324 3.05374C75.8026 3.20413 75.8877 3.39805 75.8877 3.63551C75.8877 3.87297 75.8026 4.06887 75.6324 4.22322C75.4662 4.37361 75.2485 4.44881 74.9794 4.44881ZM77.1792 12V5.5055H78.598V6.54438H78.6989C78.8573 6.17236 79.0987 5.88543 79.4232 5.68359C79.7517 5.4778 80.1534 5.3749 80.6283 5.3749C81.3486 5.3749 81.9007 5.58465 82.2846 6.00416C82.6724 6.42367 82.8664 7.02128 82.8664 7.79698V12H81.3941V8.14723C81.3941 7.15386 80.9568 6.65718 80.0821 6.65718C79.6428 6.65718 79.2946 6.79767 79.0373 7.07866C78.7801 7.35966 78.6515 7.73959 78.6515 8.21847V12H77.1792ZM84.7219 12V6.72248H83.6592V5.54706H84.7219V4.86436C84.7219 4.21531 84.892 3.73049 85.2324 3.40993C85.5767 3.08936 86.107 2.92907 86.8234 2.92907C87.1202 2.92907 87.3933 2.95084 87.6426 2.99437V4.07481C87.512 4.05502 87.3438 4.04513 87.138 4.04513C86.7976 4.04513 86.5503 4.12032 86.3959 4.27071C86.2455 4.41715 86.1704 4.64669 86.1704 4.95934V5.54706H87.5832V6.72248H86.1882V12H84.7219ZM91.2078 12.1306C90.2342 12.1306 89.4704 11.8318 88.9163 11.2342C88.3623 10.6326 88.0852 9.80548 88.0852 8.75275C88.0852 7.70793 88.3642 6.88474 88.9223 6.28318C89.4803 5.67766 90.2421 5.3749 91.2078 5.3749C92.1774 5.3749 92.9393 5.67568 93.4933 6.27724C94.0514 6.8788 94.3304 7.70397 94.3304 8.75275C94.3304 9.80548 94.0514 10.6326 93.4933 11.2342C92.9393 11.8318 92.1774 12.1306 91.2078 12.1306ZM90.0146 10.3378C90.2956 10.7098 90.6933 10.8958 91.2078 10.8958C91.7223 10.8958 92.1181 10.7098 92.3951 10.3378C92.6761 9.96181 92.8166 9.43347 92.8166 8.75275C92.8166 8.07599 92.6761 7.54963 92.3951 7.17365C92.1141 6.79767 91.7183 6.60968 91.2078 6.60968C90.6933 6.60968 90.2956 6.79767 90.0146 7.17365C89.7336 7.54963 89.5931 8.07599 89.5931 8.75275C89.5931 9.43347 89.7336 9.96181 90.0146 10.3378Z" fill="#F8F9FC"/>
</svg>
