<svg width="30" height="30" viewBox="0 0 30 30" fill="none" xmlns="http://www.w3.org/2000/svg">
<path d="M2.89551 2.92212H26.9574V26.9279H2.89551V2.92212Z" fill="#1C0A00"/>
<path d="M2.89574 2.92216H26.9576V26.9279H2.89574V2.92216ZM1.7998 28.05H28.0498V1.80005H1.7998V28.05ZM18.9936 11.1558C18.9936 11.0664 19.0264 11.0212 19.1248 11.0212H20.8423C20.9295 11.0212 20.9736 11.0549 20.9736 11.1558V20.0068C20.9736 20.0962 20.952 20.1414 20.8423 20.1414H19.1482C19.0386 20.1414 19.0057 20.0856 19.0057 19.9952V11.1558H18.9936ZM18.8736 8.60966C18.8736 8.3062 18.9911 8.01516 19.2003 7.80057C19.4095 7.58599 19.6933 7.46543 19.9892 7.46543C20.2851 7.46543 20.5688 7.58599 20.778 7.80057C20.9873 8.01516 21.1048 8.3062 21.1048 8.60966C21.1156 8.76469 21.0934 8.92027 21.0398 9.06563C20.9862 9.21099 20.9024 9.34265 20.7942 9.4515C20.686 9.56034 20.5561 9.64376 20.4133 9.69597C20.2706 9.74819 20.1185 9.76795 19.9676 9.75389C19.8198 9.76341 19.6716 9.74013 19.5333 9.68566C19.395 9.63118 19.2698 9.54678 19.1662 9.4382C19.0625 9.32962 18.9829 9.19941 18.9327 9.05644C18.8826 8.91346 18.863 8.76108 18.8754 8.60966H18.8736ZM13.9517 14.8472C13.6451 13.5972 12.9204 10.8875 12.6504 9.57505H12.6289C12.3992 10.8875 11.8198 13.1087 11.3604 14.8472H13.9517ZM10.9114 16.6645L10.047 20.0299C10.0254 20.1193 9.99262 20.1424 9.88293 20.1424H8.27699C8.16731 20.1424 8.14574 20.1087 8.1673 19.9741L11.2732 8.82024C11.3488 8.51614 11.3857 8.20328 11.3829 7.88947C11.3829 7.81063 11.4157 7.77697 11.4701 7.77697H13.767C13.8439 7.77697 13.8767 7.79909 13.8982 7.88947L17.3764 19.9933C17.3979 20.0827 17.3764 20.1395 17.2892 20.1395H15.4732C15.3861 20.1395 15.3307 20.1174 15.3092 20.0433L14.412 16.6664H10.9123L10.9114 16.6645Z" fill="#FF7F18"/>
</svg>
