<svg width="30" height="30" viewBox="0 0 30 30" fill="none" xmlns="http://www.w3.org/2000/svg">
<path d="M28.125 1.875H1.875V28.125H28.125V1.875Z" fill="#F5DE19"/>
<path d="M19.5083 22.3828C19.732 22.8371 20.0795 23.2189 20.5107 23.4843C20.942 23.7497 21.4395 23.8878 21.9458 23.8828C22.9677 23.8828 23.6211 23.3718 23.6211 22.664C23.6211 21.8203 22.9499 21.5184 21.8249 21.0262L21.208 20.7618C19.4268 20.0034 18.2455 19.0537 18.2455 17.0456C18.2455 15.1959 19.6518 13.7868 21.8577 13.7868C22.5718 13.7352 23.2853 13.8951 23.9091 14.2463C24.533 14.5976 25.0396 15.1248 25.3658 15.7621L23.4374 16.9949C23.3118 16.6789 23.0931 16.4086 22.8103 16.2197C22.5275 16.0308 22.194 15.9324 21.8539 15.9374C21.7056 15.9226 21.5558 15.9388 21.414 15.9851C21.2723 16.0313 21.1418 16.1066 21.0307 16.2061C20.9197 16.3055 20.8306 16.4271 20.7691 16.5629C20.7076 16.6987 20.6751 16.8459 20.6736 16.9949C20.6736 17.7346 21.1321 18.0346 22.1905 18.4949L22.8074 18.7593C24.9036 19.6584 26.0886 20.5743 26.0886 22.634C26.0886 24.8549 24.3439 26.0718 22.0011 26.0718C21.0883 26.13 20.1781 25.9227 19.3805 25.4751C18.5828 25.0274 17.9317 24.3585 17.5058 23.549L19.5083 22.3828ZM10.7943 22.5965C11.1814 23.2837 11.5339 23.8649 12.3814 23.8649C13.1914 23.8649 13.7033 23.5481 13.7033 22.3153V13.9274H16.1699V22.3481C16.1699 24.9018 14.6699 26.0643 12.4864 26.0643C11.7146 26.1065 10.9482 25.9142 10.2877 25.5126C9.62727 25.111 9.10381 24.519 8.78613 23.8143L10.7943 22.5965Z" fill="black"/>
</svg>
