<svg width="76" height="15" viewBox="0 0 76 15" fill="none" xmlns="http://www.w3.org/2000/svg">
<g clip-path="url(#clip0_490_1441)">
<path d="M13.8891 0.000732422H1.10719C0.496875 0.000732422 0 0.484951 0 1.0812V13.9175C0 14.5151 0.496875 15.0003 1.10719 15.0003H13.89C14.5017 15.0003 15 14.5151 15 13.9175V1.0812C15 0.484951 14.5017 0.000732422 13.8891 0.000732422Z" fill="#0177B5"/>
<path d="M2.22355 5.62354H4.45246V12.7813H2.22355V5.62354ZM3.33637 2.06104C4.04746 2.06104 4.62543 2.639 4.62543 3.3501C4.62543 4.06119 4.04746 4.64057 3.33684 4.64057C2.99477 4.63982 2.66691 4.50364 2.42499 4.26181C2.18307 4.01997 2.04677 3.69217 2.0459 3.3501C2.0459 3.1807 2.07929 3.01296 2.14416 2.85647C2.20903 2.69998 2.3041 2.55782 2.42395 2.4381C2.5438 2.31838 2.68607 2.22345 2.84263 2.15876C2.99919 2.09406 3.16697 2.06085 3.33637 2.06104ZM5.84418 5.62354H7.97793V6.60182H8.00746C8.30465 6.03932 9.03027 5.44588 10.1168 5.44588C12.3696 5.44588 12.7854 6.92854 12.7854 8.85557V12.7818H10.5621V9.29994C10.5621 8.47025 10.5471 7.4015 9.40621 7.4015C8.2484 7.4015 8.07027 8.30619 8.07027 9.239V12.7799H5.84746V5.62213L5.84418 5.62354Z" fill="#F8F9FC"/>
</g>
<path d="M20 0H69C72.866 0 76 3.13401 76 7V8C76 11.866 72.866 15 69 15H20V0Z" fill="#0177B5"/>
<path d="M26.3773 12V6.72248H25.3146V5.54706H26.3773V4.86436C26.3773 4.21531 26.5474 3.73049 26.8878 3.40993C27.2321 3.08936 27.7624 2.92907 28.4788 2.92907C28.7756 2.92907 29.0487 2.95084 29.298 2.99437V4.07481C29.1674 4.05502 28.9992 4.04513 28.7934 4.04513C28.453 4.04513 28.2057 4.12032 28.0513 4.27071C27.901 4.41715 27.8258 4.64669 27.8258 4.95934V5.54706H29.2386V6.72248H27.8436V12H26.3773ZM32.786 6.54438C32.3467 6.54438 31.9846 6.68884 31.6997 6.97774C31.4147 7.26665 31.2564 7.64857 31.2247 8.12348H34.282C34.2662 7.64065 34.1237 7.25676 33.8546 6.97181C33.5855 6.68686 33.2293 6.54438 32.786 6.54438ZM34.2939 10.2131H35.689C35.5505 10.8068 35.2239 11.2758 34.7095 11.6201C34.1989 11.9604 33.5637 12.1306 32.8038 12.1306C31.8501 12.1306 31.1001 11.8338 30.5539 11.2401C30.0117 10.6425 29.7406 9.82131 29.7406 8.7765C29.7406 7.73168 30.0137 6.90453 30.5599 6.29505C31.106 5.68162 31.8501 5.3749 32.792 5.3749C33.7181 5.3749 34.4423 5.66578 34.9647 6.24756C35.4911 6.82538 35.7543 7.6268 35.7543 8.65183V9.12675H31.2188V9.20392C31.2386 9.74612 31.3929 10.1755 31.6819 10.4921C31.9747 10.8048 32.3626 10.9611 32.8454 10.9611C33.5894 10.9611 34.0723 10.7118 34.2939 10.2131ZM36.8677 12V5.5055H38.2865V6.5147H38.3875C38.4785 6.19017 38.6823 5.92303 38.9989 5.71328C39.3195 5.50352 39.6875 5.39864 40.1031 5.39864C40.3683 5.39864 40.5721 5.42041 40.7146 5.46394V6.82933C40.5642 6.77393 40.3129 6.74622 39.9606 6.74622C39.4817 6.74622 39.0919 6.88474 38.7911 7.16178C38.4904 7.43485 38.34 7.79698 38.34 8.24815V12H36.8677ZM47.0046 7.69012H45.6036C45.5324 7.36164 45.3741 7.10043 45.1287 6.90651C44.8833 6.70862 44.5647 6.60968 44.1729 6.60968C43.6663 6.60968 43.2706 6.79569 42.9856 7.16771C42.7046 7.53973 42.5641 8.06214 42.5641 8.73494C42.5641 9.41566 42.7066 9.94598 42.9915 10.3259C43.2765 10.7058 43.6703 10.8958 44.1729 10.8958C44.5568 10.8958 44.8714 10.8068 45.1168 10.6287C45.3661 10.4506 45.5284 10.1933 45.6036 9.85693H47.0046C46.9215 10.5495 46.6306 11.1016 46.1319 11.5132C45.6372 11.9248 44.9862 12.1306 44.1788 12.1306C43.2013 12.1306 42.4395 11.8318 41.8933 11.2342C41.3471 10.6366 41.0741 9.80351 41.0741 8.73494C41.0741 7.67825 41.3471 6.85506 41.8933 6.26537C42.4395 5.67172 43.1993 5.3749 44.1729 5.3749C44.9882 5.3749 45.6432 5.58663 46.1379 6.0101C46.6365 6.42961 46.9254 6.98962 47.0046 7.69012ZM50.8488 12.1306C49.8752 12.1306 49.1114 11.8318 48.5573 11.2342C48.0033 10.6326 47.7262 9.80548 47.7262 8.75275C47.7262 7.70793 48.0053 6.88474 48.5633 6.28318C49.1213 5.67766 49.8832 5.3749 50.8488 5.3749C51.8184 5.3749 52.5803 5.67568 53.1344 6.27724C53.6924 6.8788 53.9714 7.70397 53.9714 8.75275C53.9714 9.80548 53.6924 10.6326 53.1344 11.2342C52.5803 11.8318 51.8184 12.1306 50.8488 12.1306ZM49.6556 10.3378C49.9366 10.7098 50.3343 10.8958 50.8488 10.8958C51.3633 10.8958 51.7591 10.7098 52.0361 10.3378C52.3171 9.96181 52.4576 9.43347 52.4576 8.75275C52.4576 8.07599 52.3171 7.54963 52.0361 7.17365C51.7551 6.79767 51.3594 6.60968 50.8488 6.60968C50.3343 6.60968 49.9366 6.79767 49.6556 7.17365C49.3746 7.54963 49.2341 8.07599 49.2341 8.75275C49.2341 9.43347 49.3746 9.96181 49.6556 10.3378ZM57.4416 12.1069C56.6184 12.1069 55.9674 11.8061 55.4885 11.2045C55.0097 10.599 54.7702 9.77976 54.7702 8.74681C54.7702 7.72178 55.0097 6.90849 55.4885 6.30692C55.9714 5.7014 56.6224 5.39864 57.4416 5.39864C57.8849 5.39864 58.2807 5.49956 58.6289 5.7014C58.9772 5.90324 59.2384 6.18226 59.4125 6.53845H59.5135V2.99437H60.9857V12H59.561V10.973H59.46C59.274 11.3292 59.0029 11.6082 58.6467 11.81C58.2945 12.0079 57.8928 12.1069 57.4416 12.1069ZM59.092 7.2152C58.7991 6.83923 58.4014 6.65124 57.8987 6.65124C57.3961 6.65124 57.0004 6.83923 56.7114 7.2152C56.4225 7.58722 56.2781 8.09974 56.2781 8.75275C56.2781 9.40972 56.4206 9.92421 56.7055 10.2962C56.9944 10.6683 57.3922 10.8543 57.8987 10.8543C58.4053 10.8543 58.8031 10.6683 59.092 10.2962C59.3848 9.92026 59.5313 9.40576 59.5313 8.75275C59.5313 8.1037 59.3848 7.59118 59.092 7.2152ZM65.2039 6.54438C64.7646 6.54438 64.4025 6.68884 64.1176 6.97774C63.8326 7.26665 63.6743 7.64857 63.6426 8.12348H66.6999C66.6841 7.64065 66.5416 7.25676 66.2725 6.97181C66.0034 6.68686 65.6472 6.54438 65.2039 6.54438ZM66.7118 10.2131H68.1069C67.9683 10.8068 67.6418 11.2758 67.1273 11.6201C66.6168 11.9604 65.9816 12.1306 65.2217 12.1306C64.2679 12.1306 63.518 11.8338 62.9718 11.2401C62.4296 10.6425 62.1585 9.82131 62.1585 8.7765C62.1585 7.73168 62.4316 6.90453 62.9777 6.29505C63.5239 5.68162 64.2679 5.3749 65.2099 5.3749C66.136 5.3749 66.8602 5.66578 67.3826 6.24756C67.909 6.82538 68.1722 7.6268 68.1722 8.65183V9.12675H63.6367V9.20392C63.6565 9.74612 63.8108 10.1755 64.0997 10.4921C64.3926 10.8048 64.7805 10.9611 65.2633 10.9611C66.0073 10.9611 66.4902 10.7118 66.7118 10.2131Z" fill="#F8F9FC"/>
<defs>
<clipPath id="clip0_490_1441">
<rect width="15" height="15" fill="white"/>
</clipPath>
</defs>
</svg>
