<svg width="30" height="30" viewBox="0 0 51 50" fill="none" xmlns="http://www.w3.org/2000/svg">
<path fill-rule="evenodd" clip-rule="evenodd" d="M34.4137 39.1169C34.4797 38.99 34.543 38.8778 34.5969 38.7618C34.6309 38.6876 34.6832 38.6728 34.7571 38.6747C35.1996 38.6872 35.6422 38.7009 36.0852 38.7052C36.4614 38.7091 36.8383 38.7021 37.2149 38.6978C37.6391 38.6927 38.0633 38.6704 38.4871 38.6825C39.0516 38.6989 39.6016 38.8095 40.1121 39.0607C40.7219 39.3611 41.1832 39.8185 41.4977 40.4212C41.6985 40.806 41.8149 41.2142 41.8614 41.6478C41.9285 42.2759 41.8844 42.8896 41.6852 43.4903C41.4383 44.2349 40.9696 44.8048 40.3184 45.2318C39.8172 45.5603 39.2676 45.7544 38.6785 45.8653C38.0551 45.9829 37.4297 45.945 36.8043 45.947C36.1184 45.9497 35.4328 45.9349 34.7469 45.9271C34.627 45.9259 34.6098 45.9032 34.6414 45.7888L34.6707 45.6833C34.7375 45.4732 34.7735 45.4638 34.9867 45.4286C35.1344 45.4048 35.2875 45.3493 35.4114 45.2673C35.4832 45.2196 35.5129 45.0954 35.541 44.9997C35.5653 44.9161 35.5664 44.8243 35.5672 44.7361C35.577 43.3982 35.5871 42.0607 35.5926 40.7235C35.5938 40.3857 35.586 40.047 35.5672 39.7095C35.5539 39.4732 35.4278 39.3114 35.1465 39.2556C34.9278 39.2122 34.7074 39.1786 34.4875 39.14L34.4137 39.1169ZM40.6934 42.3564C40.6637 42.09 40.6492 41.8212 40.6016 41.5587C40.4875 40.9286 40.2117 40.3798 39.7274 39.9497C38.9442 39.2548 38.0012 39.1478 37.0129 39.2306C36.7879 39.2493 36.7395 39.3263 36.736 39.5575C36.7305 39.8857 36.725 40.2138 36.7246 40.5419C36.7231 41.5825 36.7231 42.6232 36.7246 43.6638C36.725 43.9599 36.7281 44.256 36.7367 44.5513C36.7461 44.8536 36.8559 45.1095 37.152 45.2267C37.6188 45.4114 38.1098 45.4333 38.5996 45.3579C39.3821 45.238 39.9293 44.7821 40.2965 44.0989C40.5871 43.5568 40.6692 42.965 40.6934 42.3564ZM42.5953 45.8997C42.586 45.7376 42.6524 45.6036 42.7344 45.4806C42.7567 45.4474 42.8332 45.4489 42.886 45.4384L43.3336 45.3497C43.4918 45.3161 43.575 45.2099 43.5973 45.0548C43.6121 44.9525 43.6262 44.8489 43.6274 44.7454C43.6371 43.9263 43.6465 43.1071 43.6504 42.288C43.6543 41.4677 43.6512 40.6474 43.6512 39.8271L43.6477 39.6704C43.6317 39.4068 43.5043 39.27 43.2426 39.2314L42.675 39.145C42.6051 39.1357 42.5797 39.1021 42.6051 39.04C42.6489 38.9341 42.6906 38.8243 42.7524 38.729C42.7754 38.6939 42.8531 38.6802 42.9055 38.6814C43.1766 38.6853 43.4477 38.7056 43.7188 38.7052L46.0785 38.6911C46.5332 38.6907 46.9723 38.77 47.3801 38.9876C47.8289 39.2267 48.0801 39.5966 48.152 40.1005C48.227 40.6298 48.0664 41.0759 47.6797 41.4302C47.5207 41.5763 47.3149 41.6716 47.1305 41.7903L47.0703 41.8278C47.2414 41.8907 47.4043 41.945 47.5629 42.0099C48.027 42.2001 48.3961 42.4974 48.5914 42.972C48.7457 43.3466 48.7457 43.7372 48.6543 44.1255C48.5121 44.7333 48.1117 45.1376 47.591 45.4435C47.1024 45.7306 46.5735 45.8978 46.0102 45.9259C45.4906 45.9521 44.9688 45.9423 44.4481 45.9482L44.1465 45.9497C43.6449 45.9384 43.143 45.9255 42.641 45.9122L42.5953 45.8997ZM44.7582 43.5212H44.7633C44.7633 43.7782 44.7598 44.0353 44.7645 44.2923C44.7676 44.4587 44.7617 44.6298 44.7977 44.79C44.8516 45.0294 44.961 45.2454 45.2297 45.3142C45.5926 45.4075 45.9633 45.4263 46.3305 45.3626C46.7903 45.2825 47.1571 45.0521 47.3582 44.6142C47.5074 44.2888 47.5297 43.9439 47.4785 43.5915C47.4106 43.1275 47.1641 42.7907 46.7543 42.57C46.4856 42.4251 46.1989 42.3364 45.8934 42.3247C45.5512 42.3118 45.2086 42.3111 44.8664 42.3005C44.7703 42.2978 44.7571 42.3466 44.7574 42.4255C44.7594 42.7903 44.7582 43.1556 44.7582 43.5212ZM45.4867 41.7732C45.6739 41.7638 45.8856 41.761 46.0961 41.74C46.4992 41.6997 46.7832 41.497 46.9313 41.1114C47.0067 40.9157 47.0035 40.7142 47.0055 40.5107C47.0114 39.9806 46.702 39.5462 46.1985 39.3665C45.8098 39.2278 45.409 39.2255 45.0059 39.2364C44.8426 39.2407 44.7696 39.3122 44.7672 39.4767L44.743 41.6208C44.7418 41.706 44.7785 41.7427 44.8614 41.7454L45.4867 41.7732Z" fill="#94795D"/>
<path fill-rule="evenodd" clip-rule="evenodd" d="M4.44652 45.4875L4.418 45.8562C4.15238 45.8562 3.90745 45.8543 3.66253 45.857C3.2012 45.8617 2.73988 45.8691 2.27816 45.8758L2.23363 45.8785C2.16761 45.8707 2.04769 45.8707 2.04456 45.8512C2.02503 45.7414 2.03128 45.6262 2.03636 45.5125C2.03675 45.4996 2.08167 45.4832 2.10785 45.477L2.46683 45.3969C2.69066 45.3387 2.76956 45.2422 2.78011 45.0109C2.79222 44.7504 2.80433 44.4895 2.8055 44.2289C2.80902 43.5875 2.80511 42.9469 2.80785 42.3055C2.80824 42.1555 2.75628 42.0437 2.61644 41.9828C2.45003 41.9094 2.28285 41.8375 2.11449 41.7695C2.0348 41.7375 1.93128 41.7199 1.94066 41.6129C1.95003 41.5039 2.05042 41.4754 2.14495 41.4539C2.53636 41.3645 2.92816 41.2773 3.31839 41.182C3.44417 41.1512 3.56449 41.0992 3.71488 41.0469C3.72269 41.1281 3.73714 41.2055 3.73558 41.2828L3.71253 41.6504C3.71214 41.6918 3.73363 41.7473 3.76449 41.7703C3.78324 41.7848 3.84613 41.7586 3.87738 41.7344C4.21097 41.4805 4.56409 41.2613 4.96683 41.1336C5.59066 40.9355 6.1262 41.1191 6.5012 41.657C6.63324 41.8465 6.63363 41.8465 6.81683 41.7141C7.13128 41.4855 7.46019 41.284 7.82816 41.1512C8.63597 40.8594 9.41214 41.2297 9.693 42.0434C9.79535 42.3387 9.83441 42.6438 9.83363 42.9555L9.8262 45.025C9.82581 45.1957 9.88245 45.293 10.045 45.3461C10.2274 45.4059 10.4164 45.4469 10.6219 45.5008L10.5743 45.8566C10.3407 45.8566 10.1258 45.8551 9.91097 45.857C9.38597 45.8617 8.86097 45.8645 8.33636 45.8766C8.24495 45.8789 8.22113 45.8562 8.21644 45.7707C8.2012 45.4969 8.19886 45.4973 8.45667 45.4355L8.54339 45.4133C8.79534 45.3445 8.87933 45.2672 8.88128 45.0117C8.88714 44.2781 8.90238 43.5426 8.86527 42.8105C8.82659 42.0512 8.22386 41.6469 7.48792 41.8414C7.24769 41.9047 7.03011 42.0156 6.82777 42.1594C6.75941 42.2082 6.74652 42.2645 6.75199 42.35C6.77269 42.6734 6.78558 42.9973 6.78831 43.3211C6.793 43.8879 6.78597 44.4547 6.78831 45.0219C6.78909 45.2516 6.86761 45.3395 7.09456 45.3926L7.43167 45.4703L7.49417 45.4844C7.49886 45.5922 7.50316 45.7 7.49808 45.8078C7.49495 45.8754 7.44261 45.8813 7.38402 45.8801C7.05628 45.8719 6.72816 45.8609 6.40042 45.8617C6.00159 45.8625 5.60316 45.8738 5.20472 45.8809H5.11097C5.11097 45.7664 5.1055 45.657 5.11488 45.548C5.11683 45.5219 5.16292 45.4852 5.19456 45.477L5.58753 45.3937C5.75433 45.3527 5.83402 45.2672 5.84339 45.0977C5.88792 44.3125 5.91995 43.527 5.84613 42.7422C5.83167 42.5898 5.78206 42.4352 5.71878 42.2949C5.51761 41.8504 5.06488 41.6648 4.54261 41.7984C4.29456 41.8617 4.07074 41.9754 3.85902 42.1187C3.75902 42.1867 3.71136 42.2766 3.71136 42.3902C3.71136 43.1734 3.71409 43.9566 3.71644 44.7395L3.72074 45.0414C3.72542 45.252 3.81488 45.3629 4.02386 45.4082C4.15824 45.4387 4.29417 45.4594 4.44652 45.4875Z" fill="#50382B"/>
<path fill-rule="evenodd" clip-rule="evenodd" d="M28.0628 41.1269C28.1234 41.4214 28.1222 41.6862 27.9058 41.887C27.691 42.0866 27.4191 42.0194 27.1539 41.9749C27.1785 42.1147 27.2058 42.2335 27.2191 42.3538C27.3156 43.248 26.9308 43.9116 26.1015 44.2909C25.7882 44.4339 25.4558 44.487 25.1164 44.5144C24.9476 44.5276 24.7999 44.6565 24.7839 44.7952C24.7675 44.9358 24.8558 45.0804 25.0324 45.1226C25.2406 45.1722 25.4578 45.1862 25.6714 45.2108C26.13 45.2632 26.5937 45.287 27.0468 45.369C27.732 45.4925 28.1144 46.0905 27.9937 46.7788C27.8863 47.3913 27.5316 47.837 27.0371 48.1788C26.2039 48.7562 25.2898 48.9249 24.3164 48.6304C23.7597 48.4616 23.3671 48.0956 23.2316 47.5034C23.1636 47.2069 23.2359 46.9386 23.4589 46.7374C23.7242 46.4991 24.0128 46.2866 24.2906 46.0616L24.3804 45.9714L24.2773 45.8991C23.9941 45.7647 23.7675 45.5808 23.6796 45.2612C23.6496 45.153 23.6808 45.0819 23.7726 45.0265C23.9289 44.9323 24.0843 44.8366 24.2386 44.7394C24.3113 44.694 24.3832 44.6472 24.4507 44.5948C24.5429 44.5245 24.5347 44.4722 24.4246 44.4315C24.1683 44.337 23.9406 44.1999 23.764 43.989C23.4691 43.637 23.3855 43.2179 23.4097 42.7753C23.4476 42.0839 23.823 41.6284 24.4332 41.3355C25.1585 40.9874 25.8863 40.9655 26.6257 41.2827C26.8992 41.3999 27.1875 41.4249 27.4808 41.4046C27.7 41.389 27.8914 41.3062 28.0628 41.1269ZM25.3898 46.0804C24.8453 46.0757 24.6746 46.1429 24.355 46.4683C23.9972 46.8331 23.9992 47.339 24.3562 47.7054C24.6273 47.9831 24.9656 48.1132 25.3417 48.1522C25.7812 48.1976 26.214 48.1792 26.6132 47.9593C27.039 47.7237 27.2507 47.2862 27.155 46.8456C27.0757 46.4819 26.8078 46.3155 26.4816 46.2198C26.1105 46.1112 25.7269 46.0905 25.3898 46.0804ZM24.3203 42.6007C24.3402 42.7519 24.3484 42.905 24.382 43.053C24.4691 43.4366 24.6359 43.7737 25.0175 43.9444C25.4656 44.1456 26.0378 44.0593 26.2339 43.4304C26.3683 42.9995 26.3519 42.5718 26.1898 42.1515C26.1175 41.964 26.0011 41.8054 25.8343 41.689C25.4453 41.4175 24.7433 41.3815 24.4574 41.9815C24.3644 42.1765 24.3281 42.3839 24.3203 42.6007Z" fill="#4F382B"/>
<path fill-rule="evenodd" clip-rule="evenodd" d="M18.8242 41.0305C18.8387 41.0973 18.8676 41.173 18.8684 41.2492C18.8695 41.3941 18.8539 41.5391 18.8457 41.684V41.8098L18.9684 41.716C19.3043 41.4394 19.6653 41.2039 20.0856 41.0769C20.8442 40.8484 21.602 41.2637 21.8492 42.0363C21.943 42.3301 21.9801 42.632 21.9836 42.9391C21.9914 43.6211 21.9961 44.3031 22.0031 44.9852C22.0055 45.2301 22.0336 45.2738 22.2653 45.3445C22.3965 45.3848 22.532 45.4129 22.6676 45.434C22.7422 45.4457 22.7742 45.475 22.7703 45.548L22.7711 45.6152C22.7684 45.8977 22.7488 45.9105 22.475 45.9098C21.8195 45.9086 21.1645 45.9125 20.509 45.918C20.3137 45.9195 20.3133 45.9254 20.2938 45.7324L20.2899 45.6215C20.302 45.4551 20.3059 45.4566 20.4695 45.4324C20.5797 45.416 20.6891 45.3906 20.7965 45.3625C20.907 45.334 20.9602 45.2523 20.975 45.143C20.9824 45.0875 20.9922 45.032 20.9918 44.9766C20.9824 44.2312 20.9945 43.4852 20.9539 42.741C20.9211 42.1391 20.4617 41.7805 19.8574 41.8215C19.561 41.8422 19.293 41.941 19.0485 42.1117C18.8871 42.2246 18.8547 42.3875 18.8555 42.5629C18.8586 43.2598 18.8653 43.9566 18.8727 44.6539C18.8742 44.8066 18.8785 44.9594 18.893 45.1109C18.9082 45.2766 18.9664 45.3434 19.1289 45.3793C19.2844 45.4137 19.443 45.4336 19.609 45.4613L19.6231 45.5894C19.6285 45.8883 19.5973 45.9105 19.307 45.9094C18.6293 45.9066 17.9516 45.9109 17.2742 45.9184C17.1676 45.9199 17.1223 45.8863 17.125 45.7824L17.1235 45.7379C17.1059 45.4687 17.1137 45.4586 17.3684 45.4148L17.4887 45.3906C17.7645 45.3285 17.8352 45.2551 17.8391 44.975C17.852 44.0879 17.8567 43.2012 17.8656 42.3141C17.8668 42.1867 17.8188 42.0879 17.7 42.0352C17.5336 41.9617 17.3656 41.8918 17.1973 41.8227C17.1043 41.7844 16.9981 41.7602 16.9945 41.6316C16.9922 41.541 17.0891 41.4609 17.2215 41.434C17.4875 41.3801 17.7559 41.3352 18.0188 41.2691C18.2805 41.2039 18.5375 41.1164 18.8242 41.0305Z" fill="#4F372B"/>
<path fill-rule="evenodd" clip-rule="evenodd" d="M33.4785 43.3476C33.466 44.1761 33.2508 44.8461 32.6648 45.3488C31.9226 45.9867 30.7648 46.2035 29.8183 45.7265C29.4144 45.523 29.1175 45.2109 28.9242 44.8058C28.6277 44.1828 28.5535 43.5277 28.7082 42.8566C28.8613 42.1929 29.2633 41.7121 29.8648 41.4007C30.4836 41.0808 31.1351 40.9558 31.8222 41.1238C32.6914 41.3359 33.316 42.0445 33.4402 42.9468C33.4625 43.105 33.4711 43.2652 33.4785 43.3476ZM32.4718 43.7964L32.4383 43.7925C32.4383 43.7144 32.4425 43.6363 32.4375 43.5582C32.409 43.0714 32.2996 42.6078 32.0175 42.2004C31.75 41.8144 31.3855 41.5867 30.9113 41.5535C30.3804 41.516 29.9343 41.8129 29.7777 42.355C29.5425 43.1691 29.6222 43.9625 30.0355 44.7082C30.2156 45.0332 30.4824 45.273 30.8398 45.3992C31.5402 45.6457 32.1613 45.3265 32.3437 44.6093C32.4109 44.3445 32.4304 44.0675 32.4718 43.7964Z" fill="#4F382B"/>
<path fill-rule="evenodd" clip-rule="evenodd" d="M16.2731 43.4117C16.2586 44.0062 16.1184 44.5558 15.7512 45.0336C15.3578 45.5453 14.8172 45.8187 14.2024 45.934C13.4754 46.0699 12.7926 45.9464 12.2086 45.4586C11.9313 45.2265 11.7418 44.9293 11.6168 44.591C11.4118 44.0363 11.3606 43.4679 11.4868 42.8886C11.6215 42.2687 11.9715 41.7949 12.5141 41.4769C13.1414 41.1101 13.8184 40.9465 14.5414 41.1113C15.4711 41.3238 16.0078 41.9297 16.2063 42.8468C16.2461 43.032 16.2516 43.2234 16.2731 43.4117ZM15.2551 43.8039L15.2282 43.8V43.6882C15.2129 43.1429 15.1063 42.6234 14.7809 42.1703C14.5399 41.8339 14.2172 41.623 13.8036 41.564C13.1293 41.4679 12.6887 41.8679 12.5426 42.4113C12.352 43.1211 12.4118 43.8222 12.7067 44.4953C12.8907 44.9148 13.1813 45.2418 13.6278 45.4004C14.3239 45.6476 14.9543 45.3203 15.1305 44.6058C15.1953 44.3445 15.2149 44.0718 15.2551 43.8039Z" fill="#4F372B"/>
<path fill-rule="evenodd" clip-rule="evenodd" d="M32.5008 13.103C32.9801 14.4886 33.3246 15.903 33.4383 17.3687C33.5789 19.1874 33.5149 20.9937 33.1313 22.7823L33.0821 22.9253C32.9617 22.9257 32.8391 22.9105 32.7215 22.9288C31.7281 23.0851 30.736 23.2468 29.7434 23.4077C28.7172 23.5741 27.6903 23.7339 26.666 23.9112C26.3031 23.9737 25.8539 23.8991 25.7074 24.4007L25.6371 24.4245L25.6867 21.4253L25.6364 14.1886L26.1145 14.1065C26.8961 13.9788 27.6778 13.8487 28.4606 13.7241C29.3942 13.5761 30.3285 13.4315 31.2629 13.287C31.6754 13.2237 32.0883 13.1647 32.5008 13.103Z" fill="#439934"/>
<path fill-rule="evenodd" clip-rule="evenodd" d="M24.6503 33.1683C24.146 32.7347 23.6242 32.3203 23.141 31.864C20.5402 29.4109 18.6374 26.523 17.7003 23.0414C17.4421 22.0835 17.2703 21.1097 17.2148 20.1199C17.1757 19.4269 17.1199 18.7281 17.1691 18.0386C17.2992 16.2054 17.5644 14.3898 18.1019 12.6238L18.1316 12.5828C18.1839 12.6523 18.2589 12.714 18.2855 12.7925C18.8105 14.3378 19.3312 15.8847 19.8496 17.4328C21.4781 22.2964 23.1046 27.1613 24.7359 32.0242C24.7679 32.1191 24.8503 32.1968 24.9097 32.2824L24.6503 33.1683Z" fill="#45A538"/>
<path fill-rule="evenodd" clip-rule="evenodd" d="M32.5008 13.1031C32.0879 13.1645 31.675 13.2238 31.2629 13.2871C30.3285 13.4316 29.3941 13.5762 28.4605 13.7242C27.6781 13.8484 26.8965 13.9785 26.1145 14.1066L25.6363 14.1887L25.6324 13.877C25.6164 13.6207 25.5898 13.3645 25.5863 13.1082L25.5328 8.2043C25.5203 7.18125 25.5016 6.1582 25.4809 5.13555C25.468 4.5 25.4543 3.86406 25.4258 3.2293C25.4102 2.88828 25.3551 2.54883 25.3332 2.20781C25.3203 2.01172 25.3375 1.81406 25.3418 1.61719C25.5855 2.08945 25.8242 2.56523 26.0746 3.03398C26.4703 3.775 27.1012 4.32109 27.6695 4.9168C29.9141 7.27266 31.5074 10.0102 32.5008 13.1031Z" fill="#46A037"/>
<path fill-rule="evenodd" clip-rule="evenodd" d="M25.6375 24.4247L25.7078 24.4009C25.8542 23.8993 26.3035 23.9739 26.6664 23.9114C27.6906 23.7341 28.7175 23.5743 29.7437 23.4079C30.7363 23.2474 31.7285 23.0856 32.7218 22.929C32.8394 22.9106 32.9621 22.9259 33.0824 22.9255C32.8968 23.588 32.7507 24.2649 32.5152 24.9091C32.2476 25.6395 31.9242 26.3528 31.5808 27.052C31.0675 28.097 30.4281 29.072 29.6851 29.9653C29.1125 30.6536 28.4742 31.2907 27.8347 31.9192C27.4808 32.2665 27.0644 32.5497 26.6761 32.8622L26.5753 32.7935L26.2132 32.4841L25.8386 31.6622C25.5804 30.7005 25.4453 29.7216 25.4226 28.7263L25.4296 28.5591L25.4808 27.8349C25.4976 27.5876 25.5203 27.3407 25.5308 27.0935C25.5683 26.2044 25.6019 25.3145 25.6375 24.4247Z" fill="#409433"/>
<path fill-rule="evenodd" clip-rule="evenodd" d="M25.6375 24.4247C25.6023 25.3146 25.5687 26.2048 25.5308 27.0946C25.5203 27.3423 25.498 27.5892 25.4808 27.836L25.2527 27.9224C24.7457 26.4298 24.2382 24.9528 23.7421 23.4724C22.9214 21.0228 22.1109 18.5696 21.2914 16.1192C20.63 14.1419 19.9628 12.1657 19.2921 10.1911C19.2605 10.0989 19.1707 10.0263 19.1082 9.94463L20.5691 7.2583C20.6195 7.34541 20.6855 7.42705 20.7171 7.5208C21.3929 9.5208 22.0675 11.5212 22.7363 13.5235C23.6066 16.129 24.471 18.7356 25.3406 21.3415C25.3753 21.4454 25.4324 21.5415 25.4871 21.6583L25.6871 21.4255C25.6703 22.4255 25.6539 23.4247 25.6375 24.4247Z" fill="#4FAA41"/>
<path fill-rule="evenodd" clip-rule="evenodd" d="M19.1078 9.94458C19.1707 10.0262 19.2605 10.0989 19.2918 10.1911C19.9625 12.1657 20.6297 14.1415 21.291 16.1192C22.1105 18.5696 22.9211 21.0227 23.7418 23.4723C24.2379 24.9528 24.7453 26.4293 25.2523 27.9223L25.4804 27.836L25.4293 28.5602L25.3828 28.727C25.3035 29.5196 25.2367 30.3137 25.1398 31.1047C25.0914 31.5012 24.9879 31.8903 24.9094 32.2825C24.8504 32.1969 24.7676 32.1192 24.7355 32.0243C23.1039 27.1614 21.4777 22.2965 19.8492 17.4329C19.3308 15.8848 18.8097 14.3379 18.2851 12.7926C18.2586 12.7141 18.1836 12.6524 18.1312 12.5829L19.1078 9.94458Z" fill="#4AA73C"/>
<path fill-rule="evenodd" clip-rule="evenodd" d="M25.6867 21.4253L25.4867 21.6582C25.432 21.5414 25.375 21.4453 25.3402 21.3414C24.4707 18.7355 23.6062 16.1289 22.7359 13.5234C22.0672 11.521 21.3926 9.52065 20.7168 7.52065C20.6851 7.4269 20.6191 7.34526 20.5687 7.25815L22.3754 4.88159C22.4324 4.95737 22.5136 5.02495 22.5429 5.1105C23.0445 6.57925 23.5414 8.04917 24.0359 9.52026C24.4976 10.8945 24.9523 12.2703 25.4195 13.6421C25.4508 13.7339 25.5597 13.7988 25.6324 13.8769L25.6363 14.1886L25.6867 21.4253Z" fill="#57AE47"/>
<path fill-rule="evenodd" clip-rule="evenodd" d="M25.6324 13.8771C25.5593 13.7993 25.4508 13.7345 25.4195 13.6423C24.9527 12.2704 24.4976 10.8946 24.0359 9.52041C23.5414 8.04932 23.0445 6.57939 22.5429 5.11064C22.5136 5.0251 22.4324 4.95752 22.3754 4.88174C22.9629 4.30635 23.532 3.71025 24.1433 3.16143C24.6867 2.67393 25.1234 2.15127 25.1437 1.38057L25.1867 1.22705L25.3414 1.61689C25.3375 1.81377 25.3199 2.01143 25.3328 2.20752C25.3551 2.54854 25.4101 2.88799 25.4254 3.229C25.4539 3.86377 25.4676 4.49971 25.4804 5.13525C25.5011 6.15791 25.5199 7.18096 25.5324 8.204L25.5859 13.1079C25.5898 13.3646 25.6168 13.6208 25.6324 13.8771Z" fill="#60B24F"/>
<path fill-rule="evenodd" clip-rule="evenodd" d="M24.9098 32.282C24.9883 31.8898 25.0918 31.5007 25.1403 31.1042C25.2371 30.3136 25.3039 29.5191 25.3832 28.7265L25.4031 28.7234L25.4227 28.7269C25.4453 29.7222 25.5805 30.7011 25.8387 31.6628C25.786 31.7324 25.7121 31.7937 25.684 31.8718C25.4672 32.4835 25.2625 33.1003 25.0446 33.7117C25.0149 33.7953 24.9313 33.8605 24.8731 33.9335L24.65 33.1679L24.9098 32.282Z" fill="#A9AA88"/>
<path fill-rule="evenodd" clip-rule="evenodd" d="M24.873 33.934C24.9313 33.8606 25.0148 33.7958 25.0445 33.7122C25.2625 33.1008 25.4672 32.484 25.684 31.8723C25.7117 31.7942 25.7859 31.7329 25.8387 31.6633L26.2133 32.4852C26.1395 32.5899 26.0371 32.6848 25.9961 32.8016L25.2789 34.9079C25.2492 34.9926 25.1488 35.052 25.0809 35.1235L24.873 33.934Z" fill="#B6B598"/>
<path fill-rule="evenodd" clip-rule="evenodd" d="M25.0808 35.1231C25.1484 35.0517 25.2492 34.9923 25.2789 34.9075L25.996 32.8013C26.0367 32.6845 26.1394 32.5896 26.2132 32.4849L26.5757 32.7938C26.4007 32.9669 26.3035 33.1669 26.3621 33.4196L26.2519 33.7802C26.2019 33.8419 26.1292 33.8958 26.1046 33.9665C25.8542 34.6837 25.6156 35.4048 25.3632 36.1216C25.3312 36.2122 25.2425 36.2837 25.1804 36.3642L25.0808 35.1231Z" fill="#C2C1A7"/>
<path fill-rule="evenodd" clip-rule="evenodd" d="M25.18 36.3638C25.2425 36.2833 25.3312 36.2118 25.3628 36.1212C25.6152 35.4044 25.8542 34.6833 26.1042 33.9661C26.1288 33.8954 26.2015 33.8419 26.2515 33.7798L26.0995 35.4345C26.0589 35.4813 26.0003 35.5224 25.9808 35.5767L25.4753 37.0251C25.4398 37.1239 25.3718 37.2122 25.3187 37.3048C25.2714 37.2431 25.1871 37.1833 25.1831 37.1192C25.1683 36.8685 25.1788 36.6157 25.18 36.3638Z" fill="#CECDB7"/>
<path fill-rule="evenodd" clip-rule="evenodd" d="M25.3191 37.3051C25.3722 37.2125 25.4402 37.1243 25.4757 37.0254L25.9812 35.577C26.0007 35.5223 26.0597 35.4817 26.0999 35.4348L26.1039 36.5208L25.7402 37.4532L25.3191 37.3051Z" fill="#DBDAC7"/>
<path fill-rule="evenodd" clip-rule="evenodd" d="M25.7402 37.4532L26.1039 36.5208L26.1789 37.6239L25.7402 37.4532Z" fill="#EBE9DC"/>
<path fill-rule="evenodd" clip-rule="evenodd" d="M26.3618 33.4195C26.3036 33.1671 26.4005 32.9671 26.5755 32.7937L26.6762 32.8624L26.3618 33.4195Z" fill="#CECDB7"/>
<path fill-rule="evenodd" clip-rule="evenodd" d="M25.4226 28.7272L25.4031 28.7237L25.3832 28.7269L25.4297 28.5601L25.4226 28.7272Z" fill="#4FAA41"/>
</svg>
