<svg width="30" height="30" viewBox="0 0 50 50" fill="none" xmlns="http://www.w3.org/2000/svg">
<path d="M3.00039 43.554H4.60508V37.2169L7.08945 42.7415C7.38242 43.4103 7.78359 43.6466 8.5707 43.6466C9.35781 43.6466 9.74375 43.4103 10.0367 42.7415L12.5211 37.2169V43.554H14.1258V37.2275C14.1258 36.6103 13.8789 36.3115 13.3695 36.1576C12.1504 35.7771 11.3324 36.1064 10.9621 36.9294L8.52422 42.3818L6.16367 36.929C5.80859 36.1064 4.97539 35.7771 3.75625 36.1572C3.24688 36.3115 3 36.6099 3 37.2271L3.00039 43.554ZM15.4605 38.3954H17.0648V41.8869C17.05 42.0763 17.1258 42.5216 18.0047 42.5357C18.4531 42.5427 21.4664 42.5357 21.4945 42.5357V38.3783H23.1027C23.1102 38.3783 23.1012 44.0478 23.1012 44.0712C23.1098 45.4697 21.3664 45.7732 20.5625 45.7966H15.4953V44.7169C15.5039 44.7169 20.559 44.7181 20.5715 44.7165C21.6047 44.6076 21.4824 44.0943 21.482 43.9216V43.5005H18.0715C16.4848 43.4861 15.4738 42.7935 15.4609 41.9966C15.4602 41.9236 15.4957 38.4306 15.4605 38.3954Z" fill="#00618A"/>
<path d="M24.3398 43.5541H28.9539C29.4941 43.5541 30.0191 43.4412 30.4355 43.2459C31.1297 42.9271 31.4691 42.4951 31.4691 41.9287V40.7561C31.4691 40.2932 31.0836 39.8607 30.3273 39.5732C29.9262 39.4186 29.432 39.3369 28.9535 39.3369H27.009C26.3609 39.3369 26.0523 39.1416 25.9754 38.7096C25.9602 38.658 25.9602 38.617 25.9602 38.5654V37.835C25.9602 37.7939 25.9602 37.7525 25.9754 37.7014C26.0523 37.3721 26.2223 37.2795 26.7934 37.2279L26.9477 37.2178H31.5309V36.1482H27.025C26.377 36.1482 26.0375 36.1893 25.7289 36.2818C24.7723 36.5803 24.3551 37.0533 24.3551 37.8764V38.8123C24.3551 39.5326 25.1734 40.1498 26.5465 40.2939C26.7012 40.3037 26.8551 40.3146 27.0094 40.3146H28.6762C28.7379 40.3146 28.7996 40.3146 28.8461 40.3244C29.3555 40.3654 29.5711 40.4584 29.7258 40.6432C29.8184 40.7357 29.8488 40.8287 29.8488 40.9311V41.8674C29.8488 41.9803 29.7719 42.1244 29.6176 42.2479C29.4789 42.3713 29.2473 42.4537 28.9387 42.4744L28.7688 42.4846H24.3398V43.5541ZM41.4809 41.6924C41.4809 42.7928 42.2988 43.41 43.9496 43.5338C44.1039 43.5439 44.2582 43.5541 44.4125 43.5541H48.5945V42.4846H44.382C43.4406 42.4846 43.0859 42.2479 43.0859 41.6818V36.1475H41.4813L41.4809 41.6924ZM32.4934 41.7479V37.9334C32.4934 36.9646 33.1738 36.3768 34.5191 36.1912C34.6582 36.1705 34.8133 36.1604 34.952 36.1604H37.9984C38.1531 36.1604 38.2922 36.1705 38.4465 36.1912C39.7918 36.3768 40.4727 36.9643 40.4727 37.9334V41.7479C40.4727 42.5346 40.1836 42.9549 39.5176 43.2291L41.0988 44.6561H39.2352L37.9562 43.5014L36.6687 43.583H34.952C34.6582 43.583 34.3492 43.542 34.009 43.449C32.9883 43.1709 32.4934 42.6346 32.4934 41.7479ZM34.2254 41.6553C34.2254 41.7068 34.2406 41.7588 34.2562 41.8205C34.3488 42.2639 34.7668 42.5111 35.4004 42.5111H36.8582L35.5191 41.3021H37.3828L38.5504 42.3568C38.766 42.2416 38.9074 42.0666 38.957 41.8412C38.9723 41.7896 38.9723 41.7381 38.9723 41.6865V38.0271C38.9723 37.9861 38.9723 37.9342 38.957 37.8826C38.8641 37.4701 38.4465 37.2334 37.8281 37.2334H35.4C34.6891 37.2334 34.225 37.5428 34.225 38.0271L34.2254 41.6553Z" fill="#E48E00"/>
<path d="M38.3101 28.3138C36.4559 28.2622 35.0393 28.4381 33.8276 28.9583C33.4832 29.1066 32.9347 29.1103 32.8789 29.5497C33.0676 29.7525 33.097 30.0542 33.2475 30.3027C33.5368 30.7796 34.0252 31.4188 34.4606 31.7534C34.9358 32.1195 35.4263 32.5117 35.9374 32.8291C36.8443 33.3935 37.8577 33.7154 38.7323 34.2798C39.2471 34.6137 39.7582 35.0329 40.2612 35.4094C40.5102 35.5943 40.6762 35.884 41 36V35.9469C40.8304 35.7268 40.7863 35.4244 40.6306 35.1938L39.9447 34.4947C39.2743 33.5874 38.4239 32.7917 37.5185 32.13C36.7973 31.6022 35.1832 30.8889 34.8822 30.0333L34.8293 29.9801C35.3404 29.921 35.9396 29.7323 36.4111 29.6036C37.2042 29.3865 37.9128 29.4426 38.7316 29.2271L39.839 28.9037V28.6896C39.4256 28.2569 39.1296 27.6835 38.6787 27.292C37.4986 26.2673 36.2091 25.2432 34.8822 24.3884C34.1463 23.9153 33.2365 23.6077 32.4559 23.2064C32.1945 23.0709 31.7333 23.0013 31.5592 22.776C31.1487 22.2438 30.9262 21.5693 30.6097 20.9488C29.9488 19.65 29.2982 18.2308 28.7115 16.8632C28.312 15.9312 28.0505 15.012 27.5519 14.1758C25.1572 10.1628 22.5797 7.74051 18.587 5.3601C17.7374 4.85333 16.7144 4.65421 15.6342 4.39297L13.8938 4.28518C13.5406 4.13472 13.172 3.69307 12.8393 3.47898C11.516 2.62713 8.12332 0.774448 7.1437 3.211C6.52538 4.74853 8.06898 6.24864 8.62047 7.02788C9.00747 7.57433 9.50389 8.18665 9.78074 8.80121C9.96286 9.20543 9.9937 9.6104 10.1501 10.0378C10.5327 11.0903 10.8668 12.2363 11.3625 13.2087C11.6129 13.7013 11.8898 14.22 12.2063 14.6602C12.4002 14.9296 12.7335 15.0494 12.7857 15.4664C12.4604 15.9305 12.4413 16.6521 12.2584 17.2397C11.4345 19.8888 11.7451 23.1817 12.9443 25.1422C13.3122 25.7448 14.1787 27.0353 15.3698 26.5397C16.4119 26.1071 16.1798 24.7664 16.478 23.583C16.5455 23.3157 16.5037 23.1181 16.6359 22.9384V22.9923L17.5854 24.9274C18.2881 26.0809 19.5343 27.2853 20.5911 28.099C21.1389 28.5204 21.5707 29.2503 22.2786 29.4965V29.4419H22.2264C22.0884 29.2241 21.8747 29.1342 21.6984 28.9583C21.2857 28.5459 20.8268 28.0339 20.486 27.5608C19.5248 26.2313 18.6759 24.7754 17.9019 23.2603C17.5325 22.5372 17.2116 21.7393 16.9002 21.0027C16.7798 20.719 16.7813 20.2893 16.5316 20.1433C16.1894 20.6823 15.6878 21.1187 15.4235 21.7557C15.0019 22.7738 14.9476 24.0156 14.7912 25.3031L14.6854 25.3563C13.9504 25.1759 13.6926 24.4049 13.4194 23.7439C12.7291 22.0724 12.6006 19.3798 13.2087 17.4553C13.3658 16.9567 14.0759 15.3885 13.7881 14.9281C13.6507 14.4693 13.1977 14.2043 12.945 13.8525C12.6315 13.4191 12.3179 12.8487 12.1013 12.3471C11.5358 11.0439 11.2722 9.58046 10.6781 8.26226C10.3932 7.63197 9.91292 6.99495 9.51784 6.43503C9.08091 5.81373 8.5911 5.35711 8.25183 4.60706C8.1314 4.34057 7.96764 3.91314 8.14609 3.63917C8.20263 3.45428 8.28414 3.37718 8.46332 3.31654C8.76881 3.07626 9.62066 3.39664 9.93936 3.53138C10.7853 3.88994 11.491 4.23053 12.2078 4.7141C12.5514 4.9469 12.8988 5.39603 13.3152 5.52029H13.7895C14.532 5.69396 15.364 5.57344 16.0572 5.78828C17.2836 6.16854 18.3821 6.75915 19.3794 7.40141C22.4188 9.35814 24.9031 12.1428 26.6039 15.4649C26.8771 16.0001 26.996 16.5098 27.2361 17.0773C27.7223 18.221 28.3347 19.3985 28.8179 20.5176C29.3004 21.6337 29.7711 22.7603 30.4533 23.6892C30.8117 24.1773 32.1967 24.4393 32.826 24.7103C33.2673 24.9004 33.9899 25.0988 34.4078 25.3548C35.206 25.8458 35.98 26.4305 36.7283 26.9679C37.1021 27.2389 38.2528 27.828 38.3101 28.3138ZM14.7383 7.83408C14.352 7.82659 14.0781 7.8775 13.7888 7.94187V7.99502H13.8417C14.026 8.38202 14.3513 8.63055 14.5797 8.9629L15.1077 10.0917L15.1598 10.0386C15.4866 9.80428 15.6357 9.42925 15.6342 8.85586C15.5028 8.71513 15.4837 8.53922 15.3706 8.37229C15.2208 8.14773 14.9285 8.02197 14.7383 7.83408Z" fill="#00618A"/>
<path d="M38.3101 28.3138C36.4559 28.2622 35.0393 28.4381 33.8276 28.9583C33.4832 29.1066 32.9347 29.1103 32.8789 29.5497C33.0676 29.7525 33.097 30.0542 33.2475 30.3027C33.5368 30.7796 34.0252 31.4188 34.4606 31.7534C34.9358 32.1195 35.4263 32.5117 35.9374 32.8291C36.8443 33.3935 37.8577 33.7154 38.7323 34.2798C39.2471 34.6137 39.7582 35.0329 40.2612 35.4094C40.5102 35.5943 40.6762 35.884 41 36V35.9469C40.8304 35.7268 40.7863 35.4244 40.6306 35.1938L39.9447 34.4947C39.2743 33.5874 38.4239 32.7917 37.5185 32.13C36.7973 31.6022 35.1832 30.8889 34.8822 30.0333L34.8293 29.9801C35.3404 29.921 35.9396 29.7323 36.4111 29.6036C37.2042 29.3865 37.9128 29.4426 38.7316 29.2271L39.839 28.9037V28.6896C39.4256 28.2569 39.1296 27.6835 38.6787 27.292C37.4986 26.2673 36.2091 25.2432 34.8822 24.3884C34.1463 23.9153 33.2365 23.6077 32.4559 23.2064C32.1945 23.0709 31.7333 23.0013 31.5592 22.776C31.1487 22.2438 30.9262 21.5693 30.6097 20.9488C29.9488 19.65 29.2982 18.2308 28.7115 16.8632C28.312 15.9312 28.0505 15.012 27.5519 14.1758C25.1572 10.1628 22.5797 7.74051 18.587 5.3601C17.7374 4.85333 16.7144 4.65421 15.6342 4.39297L13.8938 4.28518C13.5406 4.13472 13.172 3.69307 12.8393 3.47898C11.516 2.62713 8.12332 0.774448 7.1437 3.211C6.52538 4.74853 8.06898 6.24864 8.62047 7.02788C9.00747 7.57433 9.50389 8.18665 9.78074 8.80121C9.96286 9.20543 9.9937 9.6104 10.1501 10.0378C10.5327 11.0903 10.8668 12.2363 11.3625 13.2087C11.6129 13.7013 11.8898 14.22 12.2063 14.6602C12.4002 14.9296 12.7335 15.0494 12.7857 15.4664C12.4604 15.9305 12.4413 16.6521 12.2584 17.2397C11.4345 19.8888 11.7451 23.1817 12.9443 25.1422C13.3122 25.7448 14.1787 27.0353 15.3698 26.5397C16.4119 26.1071 16.1798 24.7664 16.478 23.583C16.5455 23.3157 16.5037 23.1181 16.6359 22.9384V22.9923L17.5854 24.9274C18.2881 26.0809 19.5343 27.2853 20.5911 28.099C21.1389 28.5204 21.5707 29.2503 22.2786 29.4965V29.4419H22.2264C22.0884 29.2241 21.8747 29.1342 21.6984 28.9583C21.2857 28.5459 20.8268 28.0339 20.486 27.5608C19.5248 26.2313 18.6759 24.7754 17.9019 23.2603C17.5325 22.5372 17.2116 21.7393 16.9002 21.0027C16.7798 20.719 16.7813 20.2893 16.5316 20.1433C16.1894 20.6823 15.6878 21.1187 15.4235 21.7557C15.0019 22.7738 14.9476 24.0156 14.7912 25.3031L14.6854 25.3563C13.9504 25.1759 13.6926 24.4049 13.4194 23.7439C12.7291 22.0724 12.6006 19.3798 13.2087 17.4553C13.3658 16.9567 14.0759 15.3885 13.7881 14.9281C13.6507 14.4693 13.1977 14.2043 12.945 13.8525C12.6315 13.4191 12.3179 12.8487 12.1013 12.3471C11.5358 11.0439 11.2722 9.58046 10.6781 8.26226C10.3932 7.63197 9.91292 6.99495 9.51784 6.43503C9.08091 5.81373 8.5911 5.35711 8.25183 4.60706C8.1314 4.34057 7.96764 3.91314 8.14609 3.63917C8.20263 3.45428 8.28414 3.37718 8.46332 3.31654C8.76881 3.07626 9.62066 3.39664 9.93936 3.53138C10.7853 3.88994 11.491 4.23053 12.2078 4.7141C12.5514 4.9469 12.8988 5.39603 13.3152 5.52029H13.7895C14.532 5.69396 15.364 5.57344 16.0572 5.78828C17.2836 6.16854 18.3821 6.75915 19.3794 7.40141C22.4188 9.35814 24.9031 12.1428 26.6039 15.4649C26.8771 16.0001 26.996 16.5098 27.2361 17.0773C27.7223 18.221 28.3347 19.3985 28.8179 20.5176C29.3004 21.6337 29.7711 22.7603 30.4533 23.6892C30.8117 24.1773 32.1967 24.4393 32.826 24.7103C33.2673 24.9004 33.9899 25.0988 34.4078 25.3548C35.206 25.8458 35.98 26.4305 36.7283 26.9679C37.1021 27.2389 38.2528 27.828 38.3101 28.3138ZM14.7383 7.83408C14.352 7.82659 14.0781 7.8775 13.7888 7.94187V7.99502H13.8417C14.026 8.38202 14.3513 8.63055 14.5797 8.9629L15.1077 10.0917L15.1598 10.0386C15.4866 9.80428 15.6357 9.42925 15.6342 8.85586C15.5028 8.71513 15.4837 8.53922 15.3706 8.37229C15.2208 8.14773 14.9285 8.02197 14.7383 7.83408Z" fill="#00618A"/>
</svg>
