<svg width="30" height="30" viewBox="0 0 50 50" fill="none" xmlns="http://www.w3.org/2000/svg">
<path d="M25 46.8749C24.4098 46.8751 23.8299 46.7199 23.3188 46.4249L17.9688 43.2577C17.1703 42.8108 17.5594 42.653 17.8234 42.5608C18.6726 42.2985 19.4857 41.931 20.2438 41.4671C20.3072 41.4377 20.3771 41.425 20.4468 41.4302C20.5166 41.4354 20.5838 41.4583 20.6422 41.4968L24.7531 43.9389C24.8297 43.9794 24.915 44.0006 25.0016 44.0006C25.0882 44.0006 25.1735 43.9794 25.25 43.9389L41.2813 34.6858C41.3563 34.6409 41.4183 34.5772 41.4613 34.5011C41.5043 34.4249 41.5268 34.3389 41.5266 34.2514V15.7421C41.5266 15.6532 41.5038 15.5659 41.4603 15.4884C41.4168 15.411 41.354 15.346 41.2781 15.2999L25.2469 6.05457C25.1713 6.01199 25.086 5.98963 24.9992 5.98963C24.9125 5.98963 24.8272 6.01199 24.7516 6.05457L8.7297 15.303C8.65327 15.3482 8.58982 15.4124 8.54547 15.4893C8.50112 15.5662 8.47739 15.6533 8.47657 15.7421V34.2436C8.47679 34.3309 8.5002 34.4165 8.54441 34.4917C8.58861 34.567 8.65202 34.6291 8.72814 34.6718L13.125 37.2093C15.5078 38.3999 16.9672 36.9968 16.9672 35.5874V17.3202C16.9672 17.1959 17.0166 17.0766 17.1045 16.9887C17.1924 16.9008 17.3116 16.8514 17.4359 16.8514H19.4672C19.5915 16.8514 19.7107 16.9008 19.7987 16.9887C19.8866 17.0766 19.9359 17.1959 19.9359 17.3202V35.5889C19.9359 38.7686 18.2047 40.5889 15.1891 40.5889C13.8881 40.6116 12.6075 40.2637 11.4969 39.5858L7.28282 37.1686C6.77124 36.8707 6.34676 36.4438 6.05174 35.9306C5.75673 35.4173 5.60151 34.8356 5.60157 34.2436V15.7421C5.60005 15.1491 5.75462 14.5663 6.04974 14.052C6.34485 13.5377 6.77013 13.1102 7.28282 12.8124L23.3156 3.55613C23.8321 3.27358 24.4113 3.12549 25 3.12549C25.5887 3.12549 26.1679 3.27358 26.6844 3.55613L42.7156 12.8124C43.2272 13.1097 43.6517 13.536 43.947 14.0487C44.2423 14.5614 44.398 15.1426 44.3984 15.7343V34.2436C44.3976 34.8356 44.2418 35.4171 43.9466 35.9302C43.6513 36.4434 43.227 36.8703 42.7156 37.1686L26.6844 46.4249C26.1723 46.7204 25.5913 46.8756 25 46.8749Z" fill="#83CD29"/>
<path d="M21.9595 28.0516C21.9595 27.9272 22.0089 27.808 22.0968 27.7201C22.1847 27.6322 22.3039 27.5828 22.4282 27.5828H24.5017C24.6124 27.5832 24.7195 27.6228 24.8039 27.6946C24.8883 27.7663 24.9445 27.8657 24.9626 27.975C25.2751 30.0859 26.2126 31.15 30.4517 31.15C33.8282 31.15 35.2673 30.3859 35.2673 28.5937C35.2673 27.5609 34.8595 26.7938 29.611 26.2797C25.2235 25.8453 22.511 24.8734 22.511 21.3672C22.511 18.1328 25.2376 16.2031 29.8079 16.2031C34.9438 16.2031 37.486 17.9859 37.8079 21.8109C37.8128 21.8748 37.8046 21.939 37.7838 21.9995C37.7629 22.0601 37.7299 22.1157 37.6867 22.163C37.6435 22.2103 37.591 22.2483 37.5326 22.2745C37.4742 22.3008 37.411 22.3147 37.347 22.3156H35.2595C35.1547 22.3142 35.0535 22.2777 34.972 22.212C34.8904 22.1463 34.8332 22.0551 34.8095 21.9531C34.311 19.7328 33.0907 19.0234 29.8095 19.0234C26.122 19.0234 25.6938 20.3078 25.6938 21.2703C25.6938 22.4359 26.2001 22.7766 31.1782 23.4344C36.1048 24.0859 38.4454 25.0078 38.4454 28.4703C38.4454 31.9641 35.5329 33.9641 30.4532 33.9641C23.4298 33.9734 21.9595 30.7531 21.9595 28.0516Z" fill="#83CD29"/>
</svg>
