<svg width="30" height="30" viewBox="0 0 30 30" fill="none" xmlns="http://www.w3.org/2000/svg">
<path d="M2.89355 2.92212H26.9554V26.9279H2.89355V2.92212Z" fill="#0C0824"/>
<path d="M2.89387 2.92216H26.9557V26.9279H2.89387V2.92216ZM1.7998 28.05H28.0498V1.80005H1.7998V28.05ZM19.497 12.5693C18.6326 12.5693 18.3373 13.0183 18.3373 13.3885C18.3373 13.7924 18.5342 14.0731 19.6939 14.6895C21.4114 15.5424 21.9439 16.3606 21.9439 17.5616C21.9439 19.3568 20.6098 20.3212 18.8051 20.3212C18.0306 20.3506 17.2608 20.1856 16.5626 19.8404C16.4857 19.8068 16.4754 19.751 16.4754 19.6606V18.0097C16.4754 17.8972 16.5298 17.8635 16.6067 17.9202C17.2624 18.3527 18.0256 18.5823 18.8051 18.5818C19.6695 18.5818 20.0304 18.2116 20.0304 17.7068C20.0304 17.3029 19.7792 16.9443 18.6739 16.3606C17.1204 15.5981 16.4754 14.8222 16.4754 13.5337C16.4754 12.0866 17.5798 10.8866 19.4942 10.8866C20.1606 10.8572 20.826 10.9641 21.4517 11.201C21.4877 11.225 21.5169 11.2584 21.5361 11.2978C21.5554 11.3371 21.5641 11.3811 21.5614 11.425V12.9635C21.5614 13.0529 21.507 13.1097 21.3973 13.076C20.819 12.7346 20.1614 12.5601 19.4942 12.5712L19.497 12.5693ZM10.0901 13.9039C10.3414 13.926 10.5382 13.926 10.9761 13.926C12.2557 13.926 13.4586 13.4664 13.4586 11.6827C13.4586 10.2577 12.5942 9.54043 11.1401 9.54043C10.7023 9.54043 10.287 9.56255 10.0901 9.57409V13.9039ZM8.14293 7.94236C8.14293 7.86351 8.29574 7.80774 8.38387 7.80774C9.08418 7.77409 10.1229 7.75197 11.2057 7.75197C14.2357 7.75197 15.417 9.45678 15.417 11.6337C15.417 14.4827 13.4042 15.7058 10.9329 15.7058C10.5176 15.7058 10.3751 15.6837 10.0798 15.6837V19.9914C10.0798 20.0808 10.047 20.126 9.94856 20.126H8.27512C8.18793 20.126 8.14387 20.0924 8.14387 19.9914V7.94716L8.14293 7.94236Z" fill="#31C5F0"/>
</svg>
