<svg width="30" height="30" viewBox="0 0 30 30" fill="none" xmlns="http://www.w3.org/2000/svg">
<path d="M15 17.3193C16.2944 17.3193 17.3438 16.27 17.3438 14.9756C17.3438 13.6812 16.2944 12.6318 15 12.6318C13.7056 12.6318 12.6562 13.6812 12.6562 14.9756C12.6562 16.27 13.7056 17.3193 15 17.3193Z" fill="#00D8FF"/>
<path d="M15 20.3492C12.1829 20.4173 9.37293 20.0376 6.675 19.2242C5.42871 18.8291 4.26631 18.2068 3.24656 17.3886C2.85743 17.1091 2.53338 16.7487 2.29663 16.3321C2.05989 15.9156 1.91605 15.4528 1.875 14.9754C1.875 13.4258 3.5775 11.907 6.42937 10.9133C9.19944 10.0327 12.0937 9.60596 15 9.64951C17.8675 9.60945 20.723 10.0285 23.4581 10.8908C24.6584 11.2734 25.7814 11.8657 26.775 12.6401C27.1575 12.9066 27.4767 13.2539 27.71 13.6575C27.9433 14.0611 28.085 14.511 28.125 14.9754C28.125 16.5861 26.2219 18.2183 23.1563 19.2326C20.5106 20.0195 17.7598 20.3961 15 20.3492ZM15 10.7708C12.2195 10.7336 9.45077 11.1393 6.79781 11.9726C4.17281 12.8886 2.99625 14.1411 2.99625 14.9726C2.99625 15.8426 4.26094 17.2104 7.03781 18.1601C9.61882 18.9344 12.3062 19.2948 15 19.2279C17.6404 19.2752 20.2724 18.9179 22.8047 18.1686C25.6875 17.2133 27 15.8436 27 14.9754C26.9527 14.6775 26.8441 14.3927 26.6812 14.1388C26.5182 13.885 26.3043 13.6677 26.0531 13.5008C25.1641 12.8137 24.161 12.2888 23.0897 11.9501C20.4732 11.1287 17.7422 10.7305 15 10.7708Z" fill="#00D8FF"/>
<path d="M9.67463 26.6654C9.23729 26.6755 8.80511 26.5694 8.42213 26.3579C7.07963 25.5836 6.61463 23.3504 7.17807 20.3833C7.7993 17.5437 8.8757 14.8232 10.3656 12.3273C11.7631 9.82335 13.5523 7.55911 15.6653 5.62044C16.5963 4.77173 17.6704 4.0947 18.8378 3.62075C19.26 3.42288 19.7205 3.32031 20.1868 3.32031C20.6531 3.32031 21.1137 3.42288 21.5359 3.62075C22.9318 4.42513 23.394 6.88888 22.7424 10.0511C22.102 12.7366 21.0536 15.308 19.6337 17.6758C18.2853 20.1502 16.5525 22.3947 14.4999 24.3254C13.5351 25.2074 12.4153 25.9032 11.1971 26.3776C10.7095 26.5586 10.1947 26.6559 9.67463 26.6654ZM11.3368 12.8842C9.91566 15.2742 8.88401 17.8752 8.28057 20.5895C7.76213 23.3223 8.25995 24.9658 8.9837 25.3839C9.7337 25.8179 11.5543 25.4064 13.7649 23.4751C15.7243 21.6254 17.3783 19.4769 18.6653 17.1095C20.0255 14.8459 21.0312 12.3874 21.6474 9.8195C22.2606 6.84294 21.7309 5.02044 20.979 4.58731C20.6972 4.47934 20.3961 4.43101 20.0946 4.44537C19.7932 4.45973 19.498 4.53647 19.2278 4.67075C18.1887 5.09951 17.2334 5.70822 16.4059 6.46888C14.3871 8.32587 12.6781 10.4935 11.3434 12.8898L11.3368 12.8842Z" fill="#00D8FF"/>
<path d="M20.3218 26.6776C19.0515 26.6776 17.4381 25.9089 15.7581 24.4642C13.6081 22.5079 11.7887 20.2167 10.3702 17.6795C8.89905 15.2179 7.83118 12.5369 7.20711 9.73791C6.93647 8.5065 6.88632 7.23684 7.05899 5.98791C7.09891 5.52461 7.23999 5.0757 7.47227 4.67285C7.70456 4.27 8.02239 3.92301 8.40336 3.65635C9.79743 2.84916 12.1627 3.67885 14.5768 5.82198C16.5836 7.71778 18.2878 9.91014 19.6299 12.3226C21.1002 14.7267 22.1793 17.349 22.8268 20.0917C23.1091 21.3683 23.1526 22.6861 22.9552 23.9785C22.9083 24.4552 22.7588 24.916 22.517 25.3295C22.2753 25.7429 21.947 26.0992 21.5546 26.3739C21.1779 26.5827 20.7524 26.6875 20.3218 26.6776ZM11.3406 17.1151C12.7013 19.5399 14.4393 21.7326 16.4893 23.611C18.5977 25.4251 20.2702 25.8151 20.9893 25.3923C21.7393 24.9564 22.2924 23.177 21.7224 20.2979C21.0979 17.6794 20.0629 15.1763 18.6559 12.8814C17.3751 10.5724 15.7484 8.4731 13.8324 6.65635C11.5599 4.63885 9.7168 4.18791 8.96586 4.62291C8.73181 4.81312 8.53974 5.04978 8.40178 5.31796C8.26381 5.58615 8.18295 5.88003 8.1643 6.18104C8.01524 7.29487 8.0638 8.42626 8.30774 9.52323C8.90802 12.1999 9.93219 14.7635 11.3415 17.117L11.3406 17.1151Z" fill="#00D8FF"/>
</svg>
