<svg width="30" height="30" viewBox="0 0 50 50" fill="none" xmlns="http://www.w3.org/2000/svg">
<path d="M36.2375 5.06567H8.78593C7.89945 5.06815 7.05 5.42139 6.42316 6.04823C5.79633 6.67506 5.44309 7.52451 5.44061 8.41099V38.686C5.44309 39.5725 5.79633 40.4219 6.42316 41.0487C7.05 41.6756 7.89945 42.0288 8.78593 42.0313H26.8672C26.6609 33.0344 29.7344 15.575 36.2375 5.06567Z" fill="#0F80CC"/>
<path d="M35.2406 6.04224H8.78593C8.15795 6.04306 7.55593 6.29289 7.11188 6.73694C6.66783 7.18099 6.418 7.78301 6.41718 8.41099V36.4766C13.2041 33.9169 20.3684 32.4997 27.6187 32.2829C29.5364 23.3669 32.0834 14.5981 35.2406 6.04224Z" fill="url(#paint0_linear_548_939)"/>
<path d="M42.6406 4.07511C40.7656 2.39855 38.4844 3.07198 36.2344 5.06573C35.9016 5.36261 35.5688 5.69073 35.2375 6.0423C31.0048 11.0482 28.0781 17.0246 26.7188 23.4376C27.1384 24.3531 27.4701 25.3063 27.7094 26.2845C27.7656 26.5032 27.8172 26.7095 27.8656 26.8845C27.9625 27.2985 28.0219 27.5673 28.0219 27.5673C28.0219 27.5673 27.9875 27.4376 27.8453 27.0267L27.7531 26.761C27.7375 26.7189 27.7172 26.6689 27.6938 26.6142C27.4438 26.0314 26.7563 24.8017 26.4438 24.2704C26.1828 25.0407 25.9516 25.761 25.7594 26.4126C26.4081 27.8079 26.8846 29.2771 27.1781 30.7876C27.1781 30.7876 27.1313 30.6079 26.9109 29.9829C26.4876 29.0701 26.0183 28.1794 25.5047 27.3142C25.1726 28.1713 25.0318 29.0907 25.0922 30.0079C25.4363 30.694 25.695 31.4198 25.8625 32.1689C26.3844 34.1735 26.7469 36.6157 26.7469 36.6157C26.7469 36.6157 26.7594 36.772 26.7781 37.0267C26.7095 38.6964 26.7434 40.3689 26.8797 42.0345C26.9572 43.6836 27.2643 45.3139 27.7922 46.8782L28.0734 46.722C27.4188 44.3709 27.1663 41.926 27.3266 39.4907C27.6207 34.3278 28.6401 29.232 30.3547 24.3532C33.4953 16.0595 37.8547 9.40323 41.8391 6.22823C38.2047 9.50948 33.2859 20.1345 31.8125 24.0689C30.2609 28.1198 29.0821 32.3038 28.2906 36.5689C29.2326 34.1886 31.0769 32.2769 33.4219 31.2501C33.4219 31.2501 35.3484 28.8735 37.6 25.4798C36.1454 25.7832 34.7084 26.1655 33.2953 26.6251C32.2016 27.0845 31.9063 27.2407 31.9063 27.2407C33.9942 25.9833 36.2 24.933 38.4922 24.1048C42.6734 17.5189 47.2297 8.1673 42.6422 4.0673" fill="#003B57"/>
<defs>
<linearGradient id="paint0_linear_548_939" x1="20.7954" y1="6.72888" x2="20.7954" y2="34.8516" gradientUnits="userSpaceOnUse">
<stop stop-color="#97D9F6"/>
<stop offset="0.92" stop-color="#0F80CC"/>
<stop offset="1" stop-color="#0F80CC"/>
</linearGradient>
</defs>
</svg>
