<svg width="30" height="30" viewBox="0 0 30 30" fill="none" xmlns="http://www.w3.org/2000/svg">
<path d="M5.15625 3.51562C4.28601 3.51563 3.45141 3.86133 2.83606 4.47668C2.2207 5.09203 1.875 5.92663 1.875 6.79688L1.875 23.2031C1.875 24.0734 2.2207 24.908 2.83606 25.5233C3.45141 26.1387 4.28601 26.4844 5.15625 26.4844H24.8438C25.714 26.4844 26.5486 26.1387 27.1639 25.5233C27.7793 24.908 28.125 24.0734 28.125 23.2031V6.79688C28.125 5.92663 27.7793 5.09203 27.1639 4.47668C26.5486 3.86133 25.714 3.51563 24.8438 3.51562H5.15625Z" fill="black"/>
<path d="M11.7183 16.6402C11.7183 16.4226 11.8047 16.214 11.9586 16.0601C12.1124 15.9063 12.3211 15.8199 12.5386 15.8199H17.4605C17.6781 15.8199 17.8867 15.9063 18.0406 16.0601C18.1944 16.214 18.2808 16.4226 18.2808 16.6402C18.2808 16.8578 18.1944 17.0664 18.0406 17.2202C17.8867 17.3741 17.6781 17.4605 17.4605 17.4605H12.5386C12.3211 17.4605 12.1124 17.3741 11.9586 17.2202C11.8047 17.0664 11.7183 16.8578 11.7183 16.6402ZM8.19754 8.6766C8.12127 8.60033 8.03073 8.53983 7.93108 8.49856C7.83142 8.45728 7.72462 8.43604 7.61676 8.43604C7.5089 8.43604 7.40209 8.45728 7.30244 8.49856C7.20279 8.53983 7.11225 8.60033 7.03598 8.6766C6.95971 8.75287 6.89921 8.84342 6.85793 8.94307C6.81666 9.04272 6.79541 9.14952 6.79541 9.25738C6.79541 9.36524 6.81666 9.47205 6.85793 9.5717C6.89921 9.67135 6.95971 9.7619 7.03598 9.83817L9.73809 12.5386L7.03598 15.2391C6.95971 15.3154 6.89921 15.4059 6.85793 15.5056C6.81666 15.6052 6.79541 15.712 6.79541 15.8199C6.79541 15.9277 6.81666 16.0345 6.85793 16.1342C6.89921 16.2339 6.95971 16.3244 7.03598 16.4007C7.19001 16.5547 7.39892 16.6412 7.61676 16.6412C7.72462 16.6412 7.83142 16.62 7.93108 16.5787C8.03073 16.5374 8.12127 16.4769 8.19754 16.4007L11.4788 13.1194C11.5552 13.0432 11.6158 12.9527 11.6571 12.853C11.6985 12.7534 11.7198 12.6465 11.7198 12.5386C11.7198 12.4307 11.6985 12.3239 11.6571 12.2242C11.6158 12.1246 11.5552 12.0341 11.4788 11.9579L8.19754 8.6766Z" fill="#00FF00"/>
</svg>
