<svg width="30" height="30" viewBox="0 0 30 30" fill="none" xmlns="http://www.w3.org/2000/svg">
<path d="M1.7998 14.925V28.05H14.9248H28.0498V14.925V1.80005H14.9248H1.7998V14.925Z" fill="#007ACC"/>
<path d="M22.9846 13.8386C23.6056 13.9861 24.1698 14.3181 24.6061 14.7926C24.8464 15.0494 25.0551 15.3352 25.2275 15.6436C25.2358 15.6776 24.1079 16.4501 23.4245 16.8832C23.3995 16.9002 23.3013 16.7886 23.1902 16.6222C23.0657 16.4025 22.8885 16.2186 22.6754 16.0878C22.4622 15.957 22.2201 15.8835 21.9716 15.8743C21.1854 15.8195 20.6751 16.2402 20.6834 16.9418C20.6768 17.1141 20.7151 17.2851 20.7946 17.4373C20.9677 17.8032 21.2881 18.0216 22.2966 18.4669C24.1487 19.282 24.9469 19.82 25.4451 20.5849C25.7224 21.068 25.893 21.6071 25.9448 22.1645C25.9966 22.722 25.9285 23.2842 25.7451 23.812C25.4937 24.3914 25.0948 24.8916 24.59 25.2604C24.0851 25.6292 23.4928 25.8532 22.8744 25.9091C22.2177 25.9861 21.5542 25.9791 20.8992 25.8883C19.8957 25.7201 18.9712 25.2284 18.2609 24.4852C17.9928 24.1767 17.7658 23.8333 17.5859 23.464C17.6617 23.4064 17.7415 23.3546 17.8248 23.3089C17.9396 23.2418 18.3804 22.9856 18.7879 22.7416L19.5287 22.3001L19.6843 22.5336C19.948 22.9186 20.2838 23.2464 20.6723 23.498C21.0634 23.717 21.5063 23.8207 21.9517 23.7977C22.3971 23.7746 22.8275 23.6257 23.1949 23.3676C23.3832 23.179 23.5008 22.929 23.5272 22.661C23.5536 22.3931 23.4871 22.1241 23.3393 21.9011C23.1374 21.607 22.7263 21.3593 21.5576 20.8421C20.6411 20.5253 19.8066 20.001 19.1166 19.3084C18.7875 18.9255 18.5444 18.4737 18.4045 17.9847C18.3009 17.4276 18.2856 16.8571 18.3591 16.2951C18.4964 15.6484 18.8252 15.0604 19.3007 14.6109C19.7763 14.1613 20.3757 13.8719 21.0177 13.7819C21.6724 13.6998 22.3355 13.719 22.9846 13.8386ZM16.8978 14.9439L16.9062 16.0284H13.5317V25.8202H11.1444V16.0284H7.76899V14.9657C7.75982 14.6011 7.7694 14.2362 7.7977 13.8727C7.80974 13.8556 9.86368 13.8471 12.3538 13.8519L16.8849 13.8641L16.8978 14.9439Z" fill="white"/>
</svg>
